<svg version="1.1" xmlns="http://www.w3.org/2000/svg" xmlns:xlink="http://www.w3.org/1999/xlink" width="119.985" height="118.70625" viewBox="0,0,119.985,118.70625"><g transform="translate(-210,-151.03585)"><g data-paper-data="{&quot;isPaintingLayer&quot;:true}" fill-rule="evenodd" stroke-linecap="butt" stroke-linejoin="miter" stroke-miterlimit="10" stroke-dasharray="" stroke-dashoffset="0" style="mix-blend-mode: normal"><path d="M272.431,264.498c-0.718,-0.007 -1.437,-0.015 -2.156,-0.02c-0.725,0.004 -1.45,0.013 -2.174,0.02c0.22853,-0.35023 0.36412,-0.75288 0.394,-1.17l0.131,-5.922c0.05157,-0.86979 0.7687,-1.55063 1.64,-1.557c0.864,0 1.58,0.68 1.638,1.558l0.132,5.92c0.03,0.434 0.175,0.83 0.395,1.171M252.214,265.167l2.257,-8.901c0.03726,-0.15284 0.11458,-0.29298 0.224,-0.406c0.02,-0.02 0.045,-0.033 0.066,-0.05c0.0728,-0.05992 0.15533,-0.10693 0.244,-0.139l-0.984,6.682c-0.155,1.052 0.195,2.015 0.836,2.618c-0.882,0.059 -1.762,0.121 -2.643,0.196M256.195,247.594l-1.745,-0.672l-2.133,-0.82c1.7,-1.22 3.299,-2.775 4.754,-4.46l-0.876,5.952" data-paper-data="{&quot;index&quot;:null}" fill="none" stroke="#ff0000" stroke-width="0.269"/><path d="M246.054,232.146c-4.828,-1.175 -9.098,-2.748 -12.8,-4.716c-0.023,0.111 -0.052,0.22 -0.086,0.33l0.242,0.995l7.8,7.242zM210,175.964c0,-10.416 8.33,-18.892 18.571,-18.892c3.52267,0.00588 6.96946,1.02395 9.93,2.933c2.95664,-1.95394 6.10903,-3.59414 9.406,-4.894c1.06685,-1.90262 3.30808,-2.81405 5.4,-2.196l0.676,0.175c6.598,-1.782 12.18,-2.054 14.975,-2.054c0.711,0 1.208,0.018 1.46,0.03c0.48536,-0.02155 0.97116,-0.03155 1.457,-0.03c2.797,0 8.379,0.273 14.977,2.055l0.676,-0.175c2.0922,-0.61867 4.33399,0.29341 5.4,2.197c3.13311,1.2351 6.13611,2.77764 8.965,4.605c2.86322,-1.7606 6.1598,-2.68991 9.521,-2.684c10.241,-0.001 18.571,8.472 18.571,18.891c0,5.799 -2.567,11.16 -6.963,14.73c0.54869,2.18659 0.9965,4.39726 1.342,6.625c0.187,1.032 1.7,10.584 -4.822,19.894c-5.55,7.92 -15.091,13.21 -28.4,15.76c2.637,4.049 5.112,8.938 5.704,13.643c0.653,5.194 -1.45,9.184 -5.794,11.075c-0.232,0.377 -0.515,0.734 -0.847,1.07c-0.089,0.096 -0.184,0.187 -0.284,0.274l-0.03,0.027c-0.139,0.126 -0.29,0.234 -0.448,0.33c-0.13666,0.08588 -0.27861,0.16304 -0.425,0.231l0.344,2.335c0.01895,0.13186 0.03395,0.26425 0.045,0.397c0.728,0.064 1.431,0.132 2.116,0.202c1.421,0.168 2.556,0.318 3.608,0.476c0.638,0.1 1.248,0.199 1.875,0.327l0.058,0.012c0.345,0.079 0.69,0.16 1.031,0.26c0.05485,0.01677 0.1092,0.03511 0.163,0.055l0.04,0.011c0.42,0.124 1.54,0.455 2.238,1.649c0.773,1.318 0.415,3.02 -0.819,3.901c-0.8563,0.61401 -1.98197,0.70407 -2.925,0.234c-0.19,-0.02 -0.381,-0.033 -0.572,-0.046c-0.568,-0.04 -1.112,-0.066 -1.656,-0.084c-1.04104,-0.0308 -2.08251,-0.04513 -3.124,-0.043h-0.256l-6.981,-0.022l-13.924,0.017l-13.94,-0.014l-4.334,0.014l-1.684,0.085c-0.27402,0.01387 -0.54859,-0.01241 -0.815,-0.078l-0.125,0.001h-0.327c-1.178,0 -2.156,0.013 -3.078,0.04c-0.53947,0.01755 -1.07857,0.04522 -1.617,0.083c-0.214,0.015 -0.41,0.027 -0.6,0.048c-0.94255,0.46965 -2.06759,0.3792 -2.923,-0.235c-1.235,-0.881 -1.592,-2.581 -0.82,-3.9c0.698,-1.194 1.816,-1.525 2.236,-1.649l0.041,-0.012c0.05409,-0.0197 0.10878,-0.03771 0.164,-0.054c0.34,-0.1 0.685,-0.183 1.031,-0.262l0.06,-0.012c0.633,-0.13 1.24,-0.227 1.858,-0.324l0.156,-0.024l-2.35,-6.323l-1.927,-5.19c-0.69821,-0.1965 -1.32823,-0.58282 -1.82,-1.116c-1.12087,-0.50727 -1.94155,-1.50762 -2.22,-2.706c-0.65092,-0.61546 -1.07424,-1.4332 -1.201,-2.32c-0.03189,-0.18053 -0.04629,-0.36371 -0.043,-0.547l0.001,-0.052c0,-0.13 0.007,-0.259 0.02,-0.386c0.0265,-0.35395 0.08202,-0.70513 0.166,-1.05l-8.14,-9.072l-0.974,-0.246c-1.204,0.39275 -2.52656,0.06744 -3.411,-0.839c-0.214,-0.217 -0.395,-0.459 -0.542,-0.719c-0.256,-0.149 -0.493,-0.333 -0.706,-0.551c-0.216,-0.218 -0.396,-0.46 -0.54,-0.718c-0.26006,-0.15175 -0.49882,-0.33737 -0.71,-0.552c-1.074,-1.094 -1.268,-2.751 -0.579,-4.05c-0.11488,-0.89938 0.18793,-1.8019 0.822,-2.45l2.05,-2.087c0.35082,-0.35746 0.78896,-0.61704 1.271,-0.753c-1.33705,-1.32566 -2.54576,-2.77478 -3.61,-4.328c-6.318,-9.229 -4.831,-18.616 -4.646,-19.637c0.31541,-2.02437 0.71475,-4.03477 1.197,-6.026c-4.78,-3.53 -7.67,-9.2 -7.67,-15.29z" data-paper-data="{&quot;index&quot;:null}" fill="#000000" stroke="none" stroke-width="1"/><path d="M219.312,197.783c7.243,-46.638 51.105,-43.782 51.105,-43.782c0,0 43.864,-2.856 51.106,43.782c0,0 6.763,33.988 -51.106,33.988c-57.869,0 -51.105,-33.988 -51.105,-33.988" data-paper-data="{&quot;index&quot;:null}" fill="#ffffff" stroke="none" stroke-width="1"/><path d="M212.881,175.965c0,-8.815 7.025,-15.96 15.69,-15.96c8.665,0 15.689,7.145 15.689,15.959c0,8.815 -7.024,15.96 -15.688,15.96c-8.666,0 -15.69,-7.145 -15.69,-15.96M295.724,175.924c0,-8.814 7.024,-15.96 15.69,-15.96c8.664,0 15.688,7.146 15.688,15.96c0,8.815 -7.024,15.96 -15.688,15.96c-8.666,0 -15.689,-7.145 -15.689,-15.959" data-paper-data="{&quot;index&quot;:null}" fill="#222222" stroke="none" stroke-width="1"/><path d="M268.861,181.925c-8.82,0 -16.92,-1.886 -22.227,-5.175c-2.658,-1.648 -5.026,-6.325 -7.073,-13.945c0.425,-0.29 0.85,-0.573 1.279,-0.845c1.953,7.387 4.204,12.092 6.542,13.54c5.088,3.154 12.916,4.962 21.479,4.962h0.01c8.575,-0.002 16.522,-1.816 21.806,-4.978c0.9,-0.538 2.285,-1.965 3.773,-5.706c0.987,-2.48 1.892,-5.654 2.71,-9.483c0.44,0.236 0.877,0.485 1.315,0.74c-1.905,8.764 -4.273,14.037 -7.069,15.71c-5.498,3.29 -13.71,5.177 -22.531,5.18z" data-paper-data="{&quot;index&quot;:null}" fill="#e6e6e6" stroke="none" stroke-width="1"/><path d="M218.55063,198.29058c7.243,-46.638 51.105,-43.782 51.105,-43.782c0,0 43.864,-2.856 51.106,43.782c0,0 6.763,33.988 -51.106,33.988c-57.869,0 -51.105,-33.988 -51.105,-33.988M285.61763,256.77158c0.02,-0.071 0.066,-0.086 0.11,-0.104c1.559,-0.52 1.619,-1.68 1.621,-1.728c0.02643,-0.26696 -0.06075,-0.53272 -0.24019,-0.73214c-0.17944,-0.19942 -0.43455,-0.31407 -0.70281,-0.31586c-0.412,0.025 -0.72,0.242 -0.863,0.568c-0.138,0.3 -0.442,0.394 -0.455,0.399c-0.412,0.135 -0.68,0.537 -0.653,0.977c0.02792,0.50168 0.44056,0.8955 0.943,0.9l0.062,-0.002l0.062,-0.01z" data-paper-data="{&quot;index&quot;:null}" fill="#ffffff" stroke="none" stroke-width="1"/><path d="M287.168,253.314c0.28637,0.00291 0.55842,0.12573 0.75,0.3386c0.19159,0.21287 0.28517,0.4963 0.258,0.7814h0.003c0,0 -0.041,1.25 -1.664,1.791c-0.04848,0.02016 -0.09868,0.03589 -0.15,0.047l-0.052,0.015v-0.003c-0.035,0.005 -0.07,0.01 -0.106,0.012l-0.067,0.002c-0.531,0 -0.978,-0.42 -1.012,-0.965c-0.03,-0.482 0.27,-0.907 0.701,-1.049c0,0 0.286,-0.087 0.411,-0.359l0.001,-0.002c0.16096,-0.36881 0.5246,-0.60771 0.927,-0.609M287.168,253.454c-0.34874,0.00214 -0.6633,0.21002 -0.802,0.53c-0.08038,0.16489 -0.2124,0.29902 -0.376,0.382l0.003,0.011l-0.122,0.04c-0.38509,0.12891 -0.6343,0.50189 -0.606,0.907c0.02631,0.46531 0.40897,0.83048 0.875,0.835l0.058,-0.002c0.03084,-0.00255 0.06154,-0.00655 0.092,-0.012l0.045,-0.006v-0.004c0.04669,-0.01042 0.09249,-0.02446 0.137,-0.042c1.305,-0.436 1.524,-1.332 1.562,-1.592l0.005,-0.08c0.02293,-0.24632 -0.05828,-0.491 -0.22395,-0.67472c-0.16567,-0.18372 -0.40068,-0.28971 -0.64805,-0.29228" data-paper-data="{&quot;index&quot;:null}" fill="#c1c1c1" stroke="none" stroke-width="1"/><path d="M286.577,256.487c-0.44747,-0.00462 -0.83146,-0.31997 -0.923,-0.758c-0.0938,-0.42754 0.11128,-0.86478 0.5,-1.066c0.18676,-0.09668 0.32795,-0.26301 0.393,-0.463c0.09126,-0.34141 0.36431,-0.60406 0.709,-0.682c0.27188,-0.05631 0.5548,0.00862 0.77492,0.17784c0.22013,0.16922 0.3556,0.42594 0.37108,0.70316c0.006,0.05 0.117,1.206 -1.347,1.956c-0.042,0.024 -0.086,0.046 -0.098,0.114l-0.124,-0.023l-0.054,0.019c-0.06636,0.0145 -0.13408,0.02188 -0.202,0.022" data-paper-data="{&quot;index&quot;:null}" fill="#ffffff" stroke="none" stroke-width="1"/><path d="M287.459,253.426c0.53827,0.00548 0.98001,0.42754 1.01,0.965h0.002c0,0 0.144,1.242 -1.381,2.024c-0.045,0.027 -0.092,0.05 -0.142,0.07l-0.049,0.022l-0.002,-0.003c-0.10311,0.03471 -0.21121,0.05228 -0.32,0.052c-0.467,0 -0.887,-0.329 -0.99,-0.812c-0.10041,-0.45916 0.12086,-0.92837 0.539,-1.143l-0.002,-0.001c0,0 0.271,-0.13 0.355,-0.417l0.001,-0.002c0.12075,-0.4423 0.52054,-0.75061 0.979,-0.755M287.459,253.566c-0.39794,0.00366 -0.74449,0.27248 -0.847,0.657c-0.064,0.215 -0.21,0.357 -0.316,0.433l0.005,0.012l-0.113,0.058c-0.36,0.182 -0.553,0.589 -0.467,0.988c0.08604,0.4054 0.4416,0.697 0.856,0.702c0.09447,-0.00012 0.18832,-0.01531 0.278,-0.045l0.043,-0.014v-0.003c0.04483,-0.01814 0.08828,-0.03953 0.13,-0.064c1.224,-0.628 1.311,-1.546 1.31,-1.81l-0.006,-0.08c-0.02679,-0.46453 -0.40872,-0.82899 -0.874,-0.834" data-paper-data="{&quot;index&quot;:null}" fill="#c1c1c1" stroke="none" stroke-width="1"/><path d="M287.388,256.945c-0.34067,-0.00143 -0.65427,-0.18591 -0.821,-0.483c-0.216,-0.38 -0.149,-0.863 0.162,-1.17c0.009,-0.009 0.241,-0.231 0.235,-0.563c-0.011,-0.357 0.171,-0.689 0.475,-0.867c0.142,-0.084 0.306,-0.128 0.471,-0.128c0.39442,0.0005 0.74696,0.24615 0.884,0.616c0.005,0.011 0.471,1.108 -0.704,2.278c-0.033,0.036 -0.068,0.069 -0.048,0.151l-0.124,-0.005l-0.059,0.043c-0.14257,0.08353 -0.30476,0.12771 -0.47,0.128z" data-paper-data="{&quot;index&quot;:null}" fill="#ffffff" stroke="none" stroke-width="1"/><path d="M287.91,253.664c0.42108,0.00083 0.79756,0.26257 0.945,0.657h0.001c0,0 0.506,1.14 -0.715,2.354c-0.035,0.039 -0.074,0.075 -0.116,0.109c-0.01285,0.01284 -0.0262,0.02518 -0.04,0.037l-0.001,-0.003c-0.029,0.02 -0.058,0.04 -0.09,0.06c-0.15288,0.09041 -0.32739,0.13775 -0.505,0.137c-0.351,0 -0.693,-0.186 -0.88,-0.518c-0.23103,-0.40965 -0.16025,-0.92313 0.173,-1.255v-0.001c0,0 0.22,-0.206 0.214,-0.506v-0.002c-0.01395,-0.37995 0.18094,-0.73712 0.508,-0.931c0.15319,-0.09065 0.32799,-0.13833 0.506,-0.138M287.91,253.804c-0.153,0 -0.305,0.041 -0.438,0.119c-0.281,0.165 -0.45,0.473 -0.438,0.809c-0.0005,0.1826 -0.06015,0.36013 -0.17,0.506l0.008,0.01l-0.093,0.094c-0.28934,0.28611 -0.35158,0.7304 -0.152,1.085c0.12116,0.21879 0.3308,0.37469 0.57521,0.42775c0.2444,0.05306 0.49982,-0.00189 0.70079,-0.15075l0.037,-0.026l-0.001,-0.003c0.03786,-0.03055 0.0733,-0.06399 0.106,-0.1c0.981,-0.976 0.79,-1.878 0.71,-2.129l-0.028,-0.073c-0.12868,-0.34064 -0.45387,-0.56684 -0.818,-0.569" data-paper-data="{&quot;index&quot;:null}" fill="#c1c1c1" stroke="none" stroke-width="1"/><path d="M293.628,245.017c0.066,0.28 0.127,0.558 0.181,0.835c-3.905,-1.892 -8.638,-0.696 -11.358,2.965l-0.24,-0.8c2.841,-3.483 7.462,-4.66 11.417,-3" data-paper-data="{&quot;index&quot;:null}" fill="#6d6d6d" stroke="none" stroke-width="1"/><path d="M282.24,226.183c0,0 10.532,11.111 11.745,20.765c0.64,5.095 -2.021,7.3 -4.676,8.247c-2.456,0.876 -5.128,-0.582 -5.884,-3.115l-5.965,-19.953l4.779,-5.944z" data-paper-data="{&quot;index&quot;:null}" fill="#222222" stroke="none" stroke-width="1"/><path d="M289.418,235.616c0.166,0.268 0.33,0.54 0.493,0.815c-3.785,-0.956 -7.78,0.58 -9.988,3.932l-0.076,-0.258l-0.174,-0.581c2.285,-3.097 6.059,-4.577 9.745,-3.908" data-paper-data="{&quot;index&quot;:null}" fill="#6d6d6d" stroke="none" stroke-width="1"/><path d="M286.264,253.757c-0.2365,-0.00061 -0.46522,-0.08452 -0.646,-0.237c-0.29892,-0.25744 -0.42832,-0.6607 -0.335,-1.044l0.218,-0.874c0.0786,-0.34123 0.32931,-0.61686 0.66159,-0.72735c0.33228,-0.11049 0.69812,-0.03987 0.96541,0.18635c0.29969,0.25736 0.42921,0.66137 0.335,1.045l-0.218,0.873c-0.03585,0.14864 -0.10453,0.28737 -0.201,0.406c-0.193,0.236 -0.477,0.372 -0.78,0.372" data-paper-data="{&quot;index&quot;:null}" fill="#ffffff" stroke="none" stroke-width="1"/><path d="M286.482,250.749c0.244,0 0.49,0.084 0.693,0.254c0.32351,0.27428 0.46244,0.70893 0.358,1.12h0.001l-0.217,0.875c-0.04,0.154 -0.11,0.303 -0.217,0.434c-0.18149,0.22506 -0.44612,0.36735 -0.73395,0.39465c-0.28783,0.02729 -0.57449,-0.06272 -0.79505,-0.24965c-0.332,-0.28 -0.457,-0.72 -0.358,-1.12h-0.002l0.218,-0.874c0.03916,-0.159 0.11329,-0.30727 0.217,-0.434c0.20393,-0.25278 0.51122,-0.3998 0.836,-0.4M286.482,250.899c-0.43401,-0.00028 -0.81102,0.29843 -0.91,0.721l-0.037,0.145l-0.145,0.583l0.002,0.001l-0.036,0.145c-0.08705,0.35529 0.03275,0.72937 0.31,0.968c0.1907,0.16084 0.43813,0.23813 0.68648,0.21442c0.24835,-0.02371 0.47669,-0.1464 0.63352,-0.34042c0.09003,-0.1093 0.15428,-0.23747 0.188,-0.375l0.037,-0.145l0.144,-0.584h-0.001l0.037,-0.145c0.08745,-0.35561 -0.03238,-0.73019 -0.31,-0.969c-0.16752,-0.14147 -0.37973,-0.21906 -0.599,-0.219" data-paper-data="{&quot;index&quot;:null}" fill="#c1c1c1" stroke="none" stroke-width="1"/><path d="M290.821,189.279c-5.038,-0.291 -8.931,-4.5 -8.765,-9.316l0.048,-1.377c0.164,-4.756 4.258,-8.571 9.204,-8.516c5.071,0.055 9.248,4.135 9.169,9.11l-0.022,1.442c-0.079,5.042 -4.47,8.956 -9.634,8.658" data-paper-data="{&quot;index&quot;:null}" fill="#ffffff" stroke="none" stroke-width="1"/><path d="M249.767,189.733c-5.177,0.22 -9.537,-3.797 -9.602,-8.894l-0.018,-1.459c-0.064,-5.04 4.121,-9.168 9.217,-9.209c5.005,-0.041 9.149,3.888 9.285,8.765l0.04,1.412c0.14,4.93 -3.837,9.169 -8.922,9.385" data-paper-data="{&quot;index&quot;:null}" fill="#ffffff" stroke="none" stroke-width="1"/><path d="M255.568,175.861c0.046,1.772 -1.271,3.245 -2.95,3.286c-1.69,0.04 -3.097,-1.383 -3.135,-3.174c-0.037,-1.787 1.304,-3.248 2.984,-3.27c1.672,-0.02 3.055,1.391 3.1,3.158" data-paper-data="{&quot;index&quot;:null}" fill="#ffffff" stroke="none" stroke-width="1"/><path d="M252.231,246.167c-0.232,0.165 -0.465,0.322 -0.7,0.473c0.329,-4.388 -2.473,-8.449 -6.81,-9.712l0.648,-0.515c4.216,1.442 6.96,5.403 6.862,9.754" data-paper-data="{&quot;index&quot;:null}" fill="#6d6d6d" stroke="none" stroke-width="1"/><path d="M265.403,228.578c0,0 -6.397,13.996 -14.813,18.624c-4.443,2.442 -7.424,0.711 -9.248,-1.467c-1.688,-2.016 -1.312,-5.077 0.737,-6.706l16.151,-12.846z" data-paper-data="{&quot;index&quot;:null}" fill="#222222" stroke="none" stroke-width="1"/><path d="M259.338,238.787c-0.187,0.254 -0.377,0.508 -0.57,0.761c-0.488,-3.937 -3.334,-7.174 -7.204,-8.063l0.209,-0.165l0.47,-0.375c3.663,1.053 6.38,4.102 7.095,7.842" data-paper-data="{&quot;index&quot;:null}" fill="#6d6d6d" stroke="none" stroke-width="1"/><path d="M266.088,265.615h-8.269c-1.408,0 -2.517,-1.222 -2.405,-2.65l2.877,-36.782h23.95l2.877,36.782c0.11,1.428 -0.999,2.65 -2.405,2.65h-8.269c-1.269,0 -2.32,-1 -2.407,-2.288l-0.132,-5.921c-0.05157,-0.86979 -0.7687,-1.55063 -1.64,-1.557c-0.863,0 -1.579,0.68 -1.639,1.557l-0.131,5.921c-0.086,1.287 -1.139,2.288 -2.407,2.288" data-paper-data="{&quot;index&quot;:null}" fill="#000001" stroke="none" stroke-width="1"/><path d="M257.625,234.706l0.666,-8.523l0.151,-0.097c7.25084,-4.68696 16.58561,-4.64891 23.798,0.097l0.663,8.477" data-paper-data="{&quot;index&quot;:null}" fill="#000001" stroke="none" stroke-width="1"/><path d="M265.626,265.615h-9.183c-1.563,0 -2.678,-1.517 -2.421,-3.262l5.425,-36.838l0.141,-0.08c6.67195,-3.79074 14.85345,-3.76029 21.497,0.08l5.424,36.838c0.257,1.745 -0.857,3.262 -2.421,3.262h-9.182c-1.41,0 -2.59,-1.243 -2.7,-2.822l-0.203,-6.972c-0.07,-0.993 -0.83,-1.758 -1.738,-1.758c-0.907,0 -1.666,0.765 -1.737,1.758l-0.203,6.972c-0.11,1.58 -1.29,2.822 -2.699,2.822" data-paper-data="{&quot;index&quot;:null}" fill="#222222" stroke="none" stroke-width="1"/><path d="M227.51,229.489l-1.377,1.4l-0.273,-0.277l1.377,-1.401z" data-paper-data="{&quot;index&quot;:null}" fill="#004e66" stroke="none" stroke-width="1"/><path d="M250.147,257.788c-0.235,-0.238 -0.233,-0.627 0.003,-0.868c0.11183,-0.1158 0.26568,-0.18154 0.42666,-0.18229c0.16098,-0.00075 0.31544,0.06354 0.42834,0.17829c0.23479,0.24272 0.23301,0.62845 -0.004,0.869c-0.11179,0.11561 -0.26555,0.18114 -0.42637,0.1817c-0.16081,0.00057 -0.31503,-0.06388 -0.42763,-0.1787" data-paper-data="{&quot;index&quot;:null}" fill="#ff5f2e" stroke="none" stroke-width="1"/><path d="M225.701,231.052c-0.18938,-0.19422 -0.18805,-0.50442 0.003,-0.697c0.08945,-0.09296 0.21266,-0.14582 0.34166,-0.14657c0.12899,-0.00075 0.25282,0.05066 0.34334,0.14257c0.18844,0.19499 0.18711,0.50464 -0.003,0.698c-0.08958,0.09283 -0.21287,0.14551 -0.34187,0.14607c-0.12899,0.00056 -0.25274,-0.05103 -0.34313,-0.14307" data-paper-data="{&quot;index&quot;:null}" fill="#fcbe32" stroke="none" stroke-width="1"/><path d="M226.261,228.22l-1.377,1.4l-0.274,-0.277l1.377,-1.402z" data-paper-data="{&quot;index&quot;:null}" fill="#004e66" stroke="none" stroke-width="1"/><path d="M224.453,229.781c-0.18938,-0.19422 -0.18805,-0.50442 0.003,-0.697c0.08985,-0.09232 0.21304,-0.14465 0.34187,-0.14521c0.12883,-0.00056 0.25247,0.05068 0.34313,0.14221c0.18779,0.19486 0.18646,0.50376 -0.003,0.697c-0.08958,0.09283 -0.21287,0.14551 -0.34187,0.14607c-0.12899,0.00056 -0.25274,-0.05103 -0.34313,-0.14307" data-paper-data="{&quot;index&quot;:null}" fill="#fcbe32" stroke="none" stroke-width="1"/><path d="M225.013,226.95l-1.377,1.4l-0.274,-0.277l1.377,-1.402z" data-paper-data="{&quot;index&quot;:null}" fill="#004e66" stroke="none" stroke-width="1"/><path d="M223.203,228.512c-0.18844,-0.19499 -0.18711,-0.50464 0.003,-0.698c0.08993,-0.09294 0.21355,-0.14567 0.34287,-0.14623c0.12932,-0.00056 0.2534,0.05108 0.34413,0.14323c0.18844,0.19499 0.18711,0.50464 -0.003,0.698c-0.08993,0.09294 -0.21355,0.14567 -0.34287,0.14623c-0.12932,0.00056 -0.2534,-0.05108 -0.34413,-0.14323" data-paper-data="{&quot;index&quot;:null}" fill="#fcbe32" stroke="none" stroke-width="1"/><path d="M230.147,226.806l-1.377,1.401l-0.273,-0.277l1.376,-1.402z" data-paper-data="{&quot;index&quot;:null}" fill="#004e66" stroke="none" stroke-width="1"/><path d="M230.306,226.367c0.18938,0.19422 0.18805,0.50442 -0.003,0.697c-0.19,0.194 -0.497,0.196 -0.685,0.003c-0.18779,-0.19486 -0.18646,-0.50376 0.003,-0.697c0.08985,-0.09232 0.21304,-0.14465 0.34187,-0.14521c0.12883,-0.00056 0.25247,0.05068 0.34313,0.14221" data-paper-data="{&quot;index&quot;:null}" fill="#fcbe32" stroke="none" stroke-width="1"/><path d="M228.899,225.536l-1.377,1.4l-0.274,-0.277l1.377,-1.401z" data-paper-data="{&quot;index&quot;:null}" fill="#004e66" stroke="none" stroke-width="1"/><path d="M229.058,225.097c0.18885,0.19444 0.18751,0.5042 -0.003,0.697c-0.08993,0.09294 -0.21355,0.14567 -0.34287,0.14623c-0.12932,0.00056 -0.2534,-0.05108 -0.34413,-0.14323c-0.18779,-0.19486 -0.18646,-0.50376 0.003,-0.697c0.08993,-0.09294 0.21355,-0.14567 0.34287,-0.14623c0.12932,-0.00056 0.2534,0.05108 0.34413,0.14323" data-paper-data="{&quot;index&quot;:null}" fill="#fcbe32" stroke="none" stroke-width="1"/><path d="M227.65,224.266l-1.377,1.4l-0.273,-0.276l1.377,-1.402z" data-paper-data="{&quot;index&quot;:null}" fill="#004e66" stroke="none" stroke-width="1"/><path d="M227.809,223.827c0.18885,0.19444 0.18751,0.5042 -0.003,0.697c-0.08976,0.09276 -0.21309,0.14547 -0.34216,0.14622c-0.12907,0.00075 -0.25301,-0.05051 -0.34384,-0.14222c-0.18803,-0.19554 -0.1867,-0.50508 0.003,-0.699c0.09002,-0.0925 0.21351,-0.14484 0.34258,-0.14522c0.12907,-0.00037 0.25286,0.05125 0.34342,0.14322" data-paper-data="{&quot;index&quot;:null}" fill="#fcbe32" stroke="none" stroke-width="1"/><path d="M250.15,256.92l0.85,0.865c-0.11175,0.1153 -0.2653,0.18063 -0.42587,0.18119c-0.16057,0.00057 -0.31457,-0.06368 -0.42713,-0.17819c-0.23441,-0.24233 -0.23308,-0.6273 0.003,-0.868" data-paper-data="{&quot;index&quot;:null}" fill="#cb3d16" stroke="none" stroke-width="1"/><path d="M247.779,256.487c0.01854,-0.23282 0.17115,-0.43346 0.39057,-0.51348c0.21942,-0.08002 0.46536,-0.02474 0.62943,0.14148c0.23455,0.24205 0.23277,0.62713 -0.004,0.867c-0.11162,0.11543 -0.26509,0.18094 -0.42566,0.18169c-0.16057,0.00076 -0.31464,-0.06331 -0.42734,-0.17769c-0.11361,-0.11579 -0.17687,-0.27178 -0.176,-0.434c0,-0.022 0.01,-0.044 0.013,-0.065M249.438,258.51c0.23389,0.24254 0.23256,0.62708 -0.003,0.868c-0.237,0.241 -0.62,0.242 -0.854,0.003c-0.23441,-0.24233 -0.23308,-0.6273 0.003,-0.868c0.11179,-0.11548 0.26543,-0.18102 0.42616,-0.18177c0.16073,-0.00076 0.31497,0.06333 0.42784,0.17777" data-paper-data="{&quot;index&quot;:null}" fill="#e1eef6" stroke="none" stroke-width="1"/><path d="M229.312,230.04l0.576,-0.586l16.702,15.509l-1.305,1.327z" data-paper-data="{&quot;index&quot;:null}" fill="#ffb74d" stroke="none" stroke-width="1"/><path d="M244.216,247.377c-0.06093,0.06237 -0.14499,0.0967 -0.23217,0.0948c-0.08718,-0.00189 -0.16967,-0.03984 -0.22783,-0.1048l-15.02,-16.74l1.153,-1.172l16.456,15.28c0.06403,0.05984 0.10135,0.14288 0.10361,0.23049c0.00226,0.08761 -0.03075,0.17245 -0.09161,0.23551l-2.14,2.177" data-paper-data="{&quot;index&quot;:null}" fill="#ffb74d" stroke="none" stroke-width="1"/><path d="M246.99,250.366c-0.62982,-0.65134 -0.62539,-1.68609 0.01,-2.332c0.30027,-0.30998 0.71284,-0.48579 1.1444,-0.48767c0.43155,-0.00189 0.84564,0.17032 1.1486,0.47767c0.63035,0.65113 0.62592,1.6863 -0.01,2.332c-0.30012,0.31023 -0.71275,0.48622 -1.14439,0.4881c-0.43165,0.00189 -0.84579,-0.1705 -1.14861,-0.4781" data-paper-data="{&quot;index&quot;:null}" fill="#004e66" stroke="none" stroke-width="1"/><path d="M223.445,226.159l2.052,-2.087l4.799,4.09l0.528,2.16l-0.619,0.628l-0.616,0.627l-1.9,-0.48l-0.223,-0.055z" data-paper-data="{&quot;index&quot;:null}" fill="#ffcc80" stroke="none" stroke-width="1"/><path d="M246.99,250.366c-0.62982,-0.65134 -0.62539,-1.68609 0.01,-2.332c0.30027,-0.30998 0.71284,-0.48579 1.1444,-0.48767c0.43155,-0.00189 0.84564,0.17032 1.1486,0.47767c0.63035,0.65113 0.62592,1.6863 -0.01,2.332c-0.30012,0.31023 -0.71275,0.48622 -1.14439,0.4881c-0.43165,0.00189 -0.84579,-0.1705 -1.14861,-0.4781" data-paper-data="{&quot;index&quot;:null}" fill="#004e66" stroke="none" stroke-width="1"/><path d="M246.99,250.366c-0.62982,-0.65134 -0.62539,-1.68609 0.01,-2.332c0.30027,-0.30998 0.71284,-0.48579 1.1444,-0.48767c0.43155,-0.00189 0.84564,0.17032 1.1486,0.47767c0.63035,0.65113 0.62592,1.6863 -0.01,2.332c-0.30012,0.31023 -0.71275,0.48622 -1.14439,0.4881c-0.43165,0.00189 -0.84579,-0.1705 -1.14861,-0.4781" data-paper-data="{&quot;index&quot;:null}" fill="#d84315" stroke="none" stroke-width="1"/><path d="M245.712,251.666c-1.33,-1.353 -1.321,-3.556 0.022,-4.921c1.341,-1.365 3.507,-1.375 4.837,-0.021c1.33,1.353 1.321,3.556 -0.02,4.921c-1.343,1.365 -3.509,1.374 -4.839,0.021" data-paper-data="{&quot;index&quot;:null}" fill="#cb3d16" stroke="none" stroke-width="1"/><path d="M254.357,251.077l-2.08,2.116l-0.608,-0.616l2.081,-2.118z" data-paper-data="{&quot;index&quot;:null}" fill="#fcbe32" stroke="none" stroke-width="1"/><path d="M225.915,225.753l26.5,26.956M225.642,226.03l26.319,26.773M225.37,226.308l26.319,26.772M225.097,226.586l26.319,26.772" data-paper-data="{&quot;index&quot;:null}" fill="none" stroke="#e1eef6" stroke-width="0.197"/><path d="M254.379,251.054l-4.162,4.234l-0.606,-0.617l4.16,-4.235z" data-paper-data="{&quot;index&quot;:null}" fill="#bdbdbd" stroke="none" stroke-width="1"/><path d="M229.669,228.89l-1.375,1.398l-3.627,-3.691l1.374,-1.398z" data-paper-data="{&quot;index&quot;:null}" fill="#ffcc80" stroke="none" stroke-width="1"/><path d="M242.164,242.755c-0.235,0 -0.464,-0.084 -0.645,-0.236c-0.20724,-0.17575 -0.33664,-0.42628 -0.36,-0.697c-0.04111,-0.43167 0.19175,-0.84306 0.583,-1.03l0.806,-0.377c0.35378,-0.16575 0.77169,-0.11029 1.07,0.142c0.207,0.176 0.336,0.423 0.36,0.698c0.04113,0.43116 -0.19186,0.84199 -0.583,1.028l-0.805,0.377c-0.13338,0.06234 -0.27877,0.09476 -0.426,0.095" data-paper-data="{&quot;index&quot;:null}" fill="#ffffff" stroke="none" stroke-width="1"/><path d="M242.973,240.245c0.244,0 0.49,0.084 0.692,0.255c0.46131,0.39425 0.52347,1.08469 0.14,1.555c-0.107,0.13 -0.237,0.229 -0.38,0.295v0.002l-0.804,0.378v-0.002c-0.37937,0.18095 -0.82973,0.12137 -1.149,-0.152c-0.462,-0.39 -0.524,-1.086 -0.14,-1.555c0.10207,-0.12673 0.23215,-0.22805 0.38,-0.296v-0.002l0.803,-0.378l0.001,0.002c0.14286,-0.06755 0.29898,-0.10239 0.457,-0.102M242.973,240.395c-0.13653,-0.00002 -0.27139,0.03003 -0.395,0.088l-0.124,0.057l-0.55,0.257l0.001,0.002l-0.132,0.062c-0.29359,0.14094 -0.49594,0.42084 -0.53773,0.74382c-0.04179,0.32298 0.08267,0.64517 0.33073,0.85618c0.277,0.23388 0.66483,0.28504 0.993,0.131l0.125,-0.058l0.543,-0.254v-0.001l0.137,-0.064c0.29359,-0.14094 0.49594,-0.42084 0.53773,-0.74382c0.04179,-0.32298 -0.08267,-0.64517 -0.33073,-0.85618c-0.16712,-0.14161 -0.37895,-0.21954 -0.598,-0.22" data-paper-data="{&quot;index&quot;:null}" fill="#c1c1c1" stroke="none" stroke-width="1"/><path d="M239.896,245.696c-0.45879,-0.00382 -0.84929,-0.33499 -0.928,-0.787l-0.015,-0.153c-0.003,-0.05 0.001,-0.1 0.007,-0.152c0.113,-1.675 1.235,-2.013 1.253,-2.018c0.0442,-0.01618 0.0897,-0.02856 0.136,-0.037c0.24827,-0.0442 0.50391,0.01213 0.71062,0.15656c0.2067,0.14443 0.3475,0.36512 0.39138,0.61344c0.0652,0.35027 -0.06687,0.70809 -0.344,0.932c-0.208,0.174 -0.255,0.431 -0.266,0.544c-0.02843,0.5024 -0.44182,0.89653 -0.945,0.901" data-paper-data="{&quot;index&quot;:null}" fill="#ffffff" stroke="none" stroke-width="1"/><path d="M240.522,242.462c0.48,0 0.907,0.348 0.997,0.844c0.072,0.39 -0.083,0.768 -0.367,0.997l-0.001,0.001c-0.14047,0.12815 -0.22638,0.30534 -0.24,0.495h-0.001c-0.03098,0.5385 -0.47364,0.96106 -1.013,0.967c-0.53431,-0.00409 -0.97492,-0.41982 -1.01,-0.953h-0.004c0,-0.018 0,-0.036 0.002,-0.054c-0.00161,-0.05341 0.0004,-0.10686 0.006,-0.16c0.118,-1.733 1.299,-2.08 1.299,-2.08c0.10676,-0.0372 0.21895,-0.05646 0.332,-0.057M240.522,242.602c-0.09781,0.00026 -0.19486,0.01717 -0.287,0.05l-0.06,0.021c-0.221,0.089 -1.05,0.516 -1.147,1.944c-0.00585,0.04542 -0.00819,0.09122 -0.007,0.137v0.022l0.002,0.026c0.02991,0.46149 0.41155,0.82129 0.874,0.824c0.46775,-0.00257 0.85214,-0.36985 0.876,-0.837l0.008,-0.13h0.013c0.03785,-0.18039 0.13331,-0.34359 0.272,-0.465c0.2561,-0.20728 0.37846,-0.53794 0.319,-0.862c-0.07383,-0.4197 -0.43687,-0.72679 -0.863,-0.73" data-paper-data="{&quot;index&quot;:null}" fill="#c1c1c1" stroke="none" stroke-width="1"/><path d="M276.463,243.875c-4.1,-0.197 -8.215,-0.208 -12.317,-0.032c-1.13,0.049 -2.228,-0.44 -2.919,-1.31c-0.611,-0.77 -1.342,-1.313 -2.578,-1.313c-0.597,0 -1.172,0.268 -1.711,0.694l1.22,-13.099c5.001,-3.943 12.168,-3.455 12.168,-3.455c0,0 7.051,-0.48 12.045,3.36l1.222,13.097c-0.504,-0.37 -1.037,-0.597 -1.59,-0.597c-1.244,0 -1.978,0.552 -2.592,1.332c-0.694,0.883 -1.807,1.378 -2.948,1.323" data-paper-data="{&quot;index&quot;:null}" fill="#f2f2f2" stroke="none" stroke-width="1"/><path d="M241.035,247.679c-0.42899,-0.00301 -0.80273,-0.29315 -0.912,-0.708l-0.027,-0.151c-0.00667,-0.05037 -0.00867,-0.10126 -0.006,-0.152c-0.028,-1.684 1.064,-2.112 1.08,-2.117c0.12058,-0.05613 0.252,-0.08514 0.385,-0.085c0.42796,0.00379 0.80055,0.29326 0.91,0.707c0.09352,0.34377 -0.00811,0.71116 -0.265,0.958c-0.203,0.202 -0.219,0.479 -0.219,0.565c0.00644,0.25624 -0.08997,0.50438 -0.2677,0.68907c-0.17774,0.18469 -0.42201,0.29054 -0.6783,0.29393" data-paper-data="{&quot;index&quot;:null}" fill="#ffffff" stroke="none" stroke-width="1"/><path d="M241.554,244.396c0.45953,0.00351 0.85997,0.31387 0.978,0.758c0.102,0.383 -0.02,0.772 -0.282,1.026l-0.001,0.001c-0.212,0.21 -0.2,0.513 -0.2,0.513c0.01,0.462 -0.287,0.89 -0.744,1.018c-0.27968,0.07499 -0.57805,0.02745 -0.82058,-0.13074c-0.24253,-0.15819 -0.40631,-0.41208 -0.45042,-0.69826h-0.004l-0.002,-0.054c-0.00732,-0.053 -0.00966,-0.10657 -0.007,-0.16c-0.028,-1.735 1.12,-2.184 1.12,-2.184h0.001c0.12956,-0.05837 0.2699,-0.08903 0.412,-0.09M241.554,244.535c-0.12332,0.00012 -0.24514,0.02708 -0.357,0.079l-0.057,0.025c-0.214,0.108 -1.005,0.606 -0.981,2.038c-0.00186,0.04539 -0.00019,0.09086 0.005,0.136l0.002,0.02l0.004,0.028c0.03865,0.24694 0.18026,0.46588 0.38962,0.60241c0.20937,0.13652 0.46683,0.17781 0.70838,0.11359c0.39028,-0.11208 0.65521,-0.4741 0.644,-0.88l-0.002,-0.129l0.011,-0.002c0.02338,-0.18363 0.10546,-0.3548 0.234,-0.488c0.23735,-0.22842 0.33094,-0.56827 0.244,-0.886c-0.1008,-0.38482 -0.44721,-0.65416 -0.845,-0.657" data-paper-data="{&quot;index&quot;:null}" fill="#c1c1c1" stroke="none" stroke-width="1"/><path d="M242.308,248.597c-0.42824,-0.00391 -0.80092,-0.29386 -0.91,-0.708l-0.028,-0.15c-0.00673,-0.0507 -0.00874,-0.10192 -0.006,-0.153c-0.027,-1.671 1.064,-2.112 1.079,-2.118c0.12096,-0.05593 0.25273,-0.0846 0.386,-0.084c0.42848,0.00322 0.80153,0.29346 0.91,0.708c0.09329,0.34377 -0.0083,0.71105 -0.265,0.958c-0.203,0.2 -0.22,0.478 -0.22,0.563c0.0122,0.43728 -0.27276,0.8275 -0.693,0.949c-0.08195,0.02341 -0.16678,0.03519 -0.252,0.035" data-paper-data="{&quot;index&quot;:null}" fill="#ffffff" stroke="none" stroke-width="1"/><path d="M242.827,245.314c0.446,0 0.855,0.301 0.978,0.758c0.103,0.382 -0.018,0.772 -0.281,1.026l-0.001,0.001c-0.212,0.21 -0.2,0.514 -0.2,0.514c0.00698,0.2747 -0.09632,0.54077 -0.28684,0.7388c-0.19052,0.19803 -0.45239,0.31155 -0.72716,0.3152c-0.50108,-0.00268 -0.9257,-0.3696 -1.001,-0.865h-0.004l-0.002,-0.055c-0.00659,-0.05306 -0.00859,-0.10659 -0.006,-0.16c-0.029,-1.735 1.12,-2.184 1.12,-2.184c0.12887,-0.0594 0.2691,-0.09011 0.411,-0.09M242.827,245.453c-0.12306,0.00058 -0.24452,0.02788 -0.356,0.08l-0.057,0.024c-0.213,0.108 -1.004,0.606 -0.981,2.037c-0.00189,0.04606 -0.00022,0.0922 0.005,0.138l0.001,0.021l0.005,0.026c0.06607,0.42721 0.43173,0.74378 0.864,0.748c0.0791,0.0002 0.15785,-0.01057 0.234,-0.032c0.39028,-0.11208 0.65521,-0.4741 0.644,-0.88l-0.002,-0.13h0.01c0.02387,-0.18398 0.10625,-0.35542 0.235,-0.489c0.23696,-0.22865 0.33049,-0.56827 0.244,-0.886c-0.10218,-0.38417 -0.44848,-0.6527 -0.846,-0.656" data-paper-data="{&quot;index&quot;:null}" fill="#c1c1c1" stroke="none" stroke-width="1"/><path d="M279.113,238.688c1.5064,-0.00017 2.95317,-0.58864 4.032,-1.64l0.144,1.552c-1.20195,0.89741 -2.66199,1.38187 -4.162,1.381h-17.735c-1.4946,0.00111 -2.9498,-0.47929 -4.15,-1.37l0.145,-1.551c1.07736,1.04471 2.5193,1.62866 4.02,1.628h17.705z" data-paper-data="{&quot;index&quot;:null}" fill="#bbbbbb" stroke="none" stroke-width="1"/><path d="M268.821,223.721l0.914,-0.537c0.3333,-0.19607 0.7467,-0.19607 1.08,0l0.914,0.537l0.915,0.538c0.33583,0.1984 0.54134,0.55994 0.54,0.95v2.148c0.00124,0.39056 -0.20415,0.75265 -0.54,0.952l-0.915,0.537l-0.914,0.537c-0.3333,0.19607 -0.7467,0.19607 -1.08,0l-0.914,-0.537l-0.914,-0.537c-0.33585,-0.19935 -0.54124,-0.56144 -0.54,-0.952v-2.147c-0.00134,-0.39006 0.20417,-0.7516 0.54,-0.95l0.914,-0.538z" data-paper-data="{&quot;index&quot;:null}" fill="#00bbff" stroke="none" stroke-width="1"/><path d="M269.017,224.689c0.08487,-0.00114 0.16651,0.03246 0.226,0.093l0.922,0.938c0.02914,0.02962 0.06895,0.0463 0.1105,0.0463c0.04155,0 0.08136,-0.01668 0.1105,-0.0463l0.922,-0.938c0.05973,-0.06079 0.14179,-0.09441 0.227,-0.093c0.17438,0.00651 0.31139,0.15153 0.308,0.326v2.536c0,0.174 -0.133,0.321 -0.302,0.327c-0.08615,0.00245 -0.16958,-0.03028 -0.23108,-0.09065c-0.0615,-0.06037 -0.09577,-0.14317 -0.09492,-0.22935v-1.587c0,-0.072 -0.084,-0.107 -0.133,-0.057l-0.585,0.595c-0.05775,0.06059 -0.1378,0.09488 -0.2215,0.09488c-0.0837,0 -0.16375,-0.03429 -0.2215,-0.09488l-0.586,-0.595c-0.049,-0.05 -0.134,-0.015 -0.134,0.057v1.58c0.00407,0.17226 -0.12899,0.31682 -0.301,0.327c-0.08615,0.00245 -0.16958,-0.03028 -0.23108,-0.09065c-0.0615,-0.06037 -0.09577,-0.14317 -0.09492,-0.22935v-2.543c-0.00283,-0.17501 0.13507,-0.32002 0.31,-0.326" data-paper-data="{&quot;index&quot;:null}" fill="#ffffff" stroke="none" stroke-width="1"/><path d="M298.059,266.809c-0.182,-0.226 -0.524,-0.207 -0.794,-0.262c-0.286,-0.037 -0.576,-0.058 -0.866,-0.076c-0.577,-0.042 -1.157,-0.07 -1.737,-0.09c-1.16102,-0.0333 -2.32251,-0.04797 -3.484,-0.044l-6.968,-0.021l-13.935,0.016l-13.934,-0.014l-6.968,0.022c-1.16149,-0.0043 -2.32297,0.01004 -3.484,0.043c-0.57985,0.01795 -1.1593,0.04729 -1.738,0.088c-0.28909,0.01632 -0.57757,0.042 -0.865,0.077c-0.27,0.054 -0.613,0.035 -0.795,0.261c0.156,-0.265 0.504,-0.299 0.767,-0.399c0.284,-0.083 0.569,-0.151 0.856,-0.216c0.575,-0.117 1.152,-0.21 1.73,-0.301c1.157,-0.175 2.317,-0.323 3.477,-0.461c2.324,-0.24 4.649,-0.428 6.978,-0.56c4.656,-0.283 9.316,-0.374 13.976,-0.393c4.66,0.021 9.32,0.113 13.976,0.396c2.329,0.132 4.655,0.319 6.977,0.56c1.162,0.138 2.321,0.285 3.478,0.46c0.578,0.09 1.156,0.182 1.73,0.3c0.288,0.065 0.574,0.133 0.856,0.215c0.262,0.099 0.612,0.134 0.767,0.399" data-paper-data="{&quot;index&quot;:null}" fill="#ad6333" stroke="none" stroke-width="1"/></g></g></svg>