<svg version="1.1" xmlns="http://www.w3.org/2000/svg" xmlns:xlink="http://www.w3.org/1999/xlink" width="67.7184" height="101.85461" viewBox="0,0,67.7184,101.85461"><g transform="translate(-216.19607,-133.04239)"><g data-paper-data="{&quot;isPaintingLayer&quot;:true}" stroke-width="1" stroke-linecap="butt" stroke-linejoin="miter" stroke-miterlimit="10" stroke-dasharray="" stroke-dashoffset="0" style="mix-blend-mode: normal"><path d="M216.25254,176.059c-0.346,-3.112 0.969,-9.08 2.01,-12.015c1.055,-2.977 3.244,-8.331 6.598,-12.674c-1.6567,-2.30303 -2.40616,-5.13602 -2.105,-7.957c0.3131,-3.05721 1.832,-5.86348 4.22037,-7.79744c2.38837,-1.93397 5.44915,-2.83607 8.50463,-2.50656c4.88997,0.50023 8.92461,4.0466 10.048,8.832c0.72033,-0.0278 1.44113,-0.0418 2.162,-0.042c5.453,0 10.307,0.814 14.463,2.423c2.00936,-3.74794 5.92141,-6.08272 10.174,-6.072c0.973,0 1.948,0.124 2.899,0.37c2.97698,0.76024 5.52585,2.68036 7.078,5.332c1.56794,2.64198 2.01305,5.80168 1.236,8.774c-0.76484,2.95947 -2.67088,5.49546 -5.301,7.053c1.055,2.419 1.535,4.532 1.814,6.019c0.623,3.314 2.519,13.398 -5.355,20.728c-3.21,2.988 -6.673,4.84 -10.937,5.8c3.557,4.888 7.225,11.138 8.02,16.945c0.348,2.543 0.027,4.749 -0.956,6.576l0.149,0.356c0.03373,0.08151 0.06245,0.16499 0.086,0.25c0.31584,1.15922 0.02215,2.39951 -0.78,3.294c-0.70438,0.7887 -1.72324,1.22299 -2.78,1.185c-0.27,0.406 -0.625,0.758 -1.052,1.029c-0.51615,0.32894 -1.10876,0.51844 -1.72,0.55l1.045,4.167c0.57,2.283 -0.813,4.636 -3.086,5.245l-10.106,2.708c-1.6486,0.44724 -3.4059,-0.11919 -4.483,-1.445c-0.82424,-1.00449 -1.15257,-2.32662 -0.894,-3.6c0.01307,-0.06355 0.00751,-0.12953 -0.016,-0.19l-1.1,-2.827l-3.73,6.219c-0.78709,1.30489 -2.19811,2.10442 -3.722,2.109c-0.76,0 -1.51,-0.201 -2.168,-0.582l-9.061,-5.232c-1.30365,-0.74676 -2.12463,-2.11822 -2.167,-3.62c-0.03235,-0.9367 0.24109,-1.85847 0.779,-2.626c-1.11086,-0.09592 -2.11217,-0.70804 -2.704,-1.653h-0.034c-1.12368,0.0009 -2.18141,-0.5304 -2.85158,-1.43237c-0.67017,-0.90197 -0.87359,-2.06802 -0.54842,-3.14363c0.02515,-0.08396 0.05589,-0.16614 0.092,-0.246l0.158,-0.351c-0.933,-1.853 -1.194,-4.067 -0.777,-6.6c1.182,-7.17 6.762,-14.844 10.839,-19.646c-1.54331,-0.52376 -3.06041,-1.12179 -4.546,-1.792c-6.708,-3.028 -9.062,-8.914 -9.395,-11.914" data-paper-data="{&quot;index&quot;:null}" fill="#000000" fill-rule="nonzero" stroke="none"/><path d="M231.46554,214.102c0.22832,-0.71068 0.98874,-1.10252 1.7,-0.876c0.49566,0.15915 0.8551,0.58986 0.923,1.106l0.006,-0.001l0.148,1.094l-0.592,0.08c-0.247,0.223 -0.56,0.363 -0.898,0.363c-0.21625,0.00155 -0.42931,-0.05215 -0.619,-0.156l-0.572,0.078l-0.15,-1.093l0.005,-0.001c-0.02821,-0.19911 -0.01182,-0.402 0.048,-0.594" data-paper-data="{&quot;index&quot;:null}" fill="#c1c1c1" fill-rule="nonzero" stroke="none"/><path d="M232.75354,213.36c0.118,0 0.236,0.019 0.351,0.056c0.293,0.093 0.533,0.296 0.673,0.569c0.14118,0.27133 0.16783,0.58789 0.074,0.879c-0.09246,0.29164 -0.29733,0.53442 -0.56927,0.67461c-0.27194,0.14019 -0.58853,0.16624 -0.87973,0.07239c-0.29136,-0.09154 -0.53381,-0.29616 -0.673,-0.568c-0.142,-0.275 -0.167,-0.587 -0.074,-0.88c0.154,-0.481 0.594,-0.803 1.098,-0.803" data-paper-data="{&quot;index&quot;:null}" fill="#ffffff" fill-rule="nonzero" stroke="none"/><path d="M232.90154,214.454c0.4202,-0.01255 0.81398,0.20438 1.02789,0.56628c0.21391,0.36189 0.21411,0.81148 0.00051,1.17356c-0.2136,0.36208 -0.60719,0.57936 -1.0274,0.56717c-0.43206,0.00115 -0.82817,-0.24038 -1.025,-0.625c-0.18639,-0.35719 -0.17225,-0.78588 0.03726,-1.13002c0.20951,-0.34414 0.58384,-0.55354 0.98674,-0.55198" data-paper-data="{&quot;index&quot;:null}" fill="#ffffff" fill-rule="nonzero" stroke="none"/><path d="M228.02054,218.383l0.16,-1.291c0.03855,-0.16024 0.10271,-0.3132 0.19,-0.453c0.28224,-0.45762 0.78234,-0.73533 1.32,-0.733c0.288,0 0.571,0.08 0.818,0.236c0.44654,0.28022 0.72147,0.7669 0.731,1.294l-0.167,1.488c-0.11461,0.48606 -0.45723,0.88668 -0.91964,1.0753c-0.46241,0.18862 -0.98748,0.14193 -1.40936,-0.1253c-0.449,-0.278 -0.72,-0.771 -0.73,-1.293l0.007,-0.198" data-paper-data="{&quot;index&quot;:null}" fill="#c1c1c1" fill-rule="nonzero" stroke="none"/><path d="M229.69054,216.106c0.38474,0.00062 0.75097,0.16526 1.00682,0.45261c0.25585,0.28735 0.37704,0.67015 0.33318,1.05239l-0.123,1.097c-0.04951,0.46263 -0.33411,0.86702 -0.75287,1.0698c-0.41876,0.20277 -0.91249,0.17525 -1.30613,-0.0728c-0.44179,-0.27661 -0.68593,-0.78198 -0.628,-1.3l-0.001,-0.001l0.125,-1.097c0.0761,-0.68534 0.65645,-1.20317 1.346,-1.201" data-paper-data="{&quot;index&quot;:null}" fill="#ffffff" fill-rule="nonzero" stroke="none"/><path d="M226.49054,216.652c0.31,0 0.61,0.092 0.868,0.266c0.43522,0.29617 0.69198,0.79164 0.683,1.318l-0.221,1.481c-0.20944,0.75415 -0.94796,1.23409 -1.72218,1.11916c-0.77421,-0.11492 -1.34148,-0.78869 -1.32282,-1.57116l0.223,-1.487c0.18971,-0.66708 0.79947,-1.12695 1.493,-1.126" data-paper-data="{&quot;index&quot;:null}" fill="#c1c1c1" fill-rule="nonzero" stroke="none"/><path d="M226.49154,216.853c0.39332,0.00057 0.76689,0.1724 1.02328,0.47066c0.25639,0.29826 0.37019,0.69339 0.31172,1.08234h0.002l-0.165,1.091c-0.11046,0.73868 -0.79882,1.24796 -1.5375,1.1375c-0.73868,-0.11046 -1.24796,-0.79882 -1.1375,-1.5375l0.163,-1.093h0.002c0.09987,-0.66142 0.66808,-1.15059 1.337,-1.151" data-paper-data="{&quot;index&quot;:null}" fill="#ffffff" fill-rule="nonzero" stroke="none"/><path d="M223.73454,215.072c0.4916,-0.00075 0.9544,0.23174 1.24728,0.62658c0.29287,0.39483 0.38108,0.90519 0.23772,1.37542l-0.617,1.371c-0.26156,0.42318 -0.7098,0.69566 -1.20588,0.73304c-0.49608,0.03738 -0.9801,-0.16485 -1.30212,-0.54404c-0.339,-0.403 -0.448,-0.954 -0.298,-1.452l0.618,-1.37c0.28259,-0.45804 0.78181,-0.73753 1.32,-0.739" data-paper-data="{&quot;index&quot;:null}" fill="#c1c1c1" fill-rule="nonzero" stroke="none"/><path d="M223.73454,215.272c0.45963,-0.00108 0.88823,0.23177 1.13747,0.61796c0.24923,0.38619 0.28485,0.87266 0.09453,1.29104l0.002,0.002l-0.455,1.005h-0.001c-0.2185,0.48412 -0.69986,0.79577 -1.231,0.797c-0.45991,0.00124 -0.88881,-0.23175 -1.1381,-0.61823c-0.24929,-0.38648 -0.28468,-0.87329 -0.0939,-1.29177h-0.002l0.456,-1.007h0.001c0.21663,-0.48512 0.69871,-0.7971 1.23,-0.796" data-paper-data="{&quot;index&quot;:null}" fill="#ffffff" fill-rule="nonzero" stroke="none"/><path d="M236.87654,187.713c2.632,0.005 4.444,2.641 3.508,5.101l-0.726,1.904l-7.617,22.138c-0.59,1.714 -2.372,2.73 -4.142,2.338c-3.252,-0.719 -7.653,-2.898 -6.572,-9.458c1.298,-7.878 8.656,-16.793 11.888,-20.393c0.93282,-1.03949 2.26433,-1.63232 3.661,-1.63" data-paper-data="{&quot;index&quot;:null}" fill="#222222" fill-rule="nonzero" stroke="none"/><path d="M233.65754,212.16c-2.785,-3.977 -7.827,-5.425 -12.098,-3.577c0.068,-0.29 0.143,-0.58 0.225,-0.872c1.99246,-0.73277 4.1612,-0.83953 6.216,-0.306c2.36391,0.60413 4.45687,1.98371 5.944,3.918l-0.287,0.836zM225.98754,198.803c0.17811,-0.28197 0.35879,-0.56232 0.542,-0.841c1.81894,-0.27686 3.6785,-0.08268 5.401,0.564c2.049,0.76179 3.81697,2.13033 5.068,3.923l-0.301,0.875c-2.24055,-3.63679 -6.54117,-5.45221 -10.71,-4.521" data-paper-data="{&quot;index&quot;:null}" fill="#6d6d6d" fill-rule="nonzero" stroke="none"/><path d="M228.40754,227.352c-1.503,-0.868 -1.57,-3.013 -0.126,-3.973c0.371,-0.248 0.665,-0.596 0.845,-1.006l3.476,-7.903c1.18589,-2.7037 3.77639,-4.52406 6.72199,-4.72358c2.94559,-0.19952 5.75791,1.25488 7.29757,3.77396c1.53966,2.51908 1.55139,5.68519 0.03044,8.21562l-6.009,10.024c-0.65614,1.09589 -2.07059,1.46197 -3.176,0.822l-9.06,-5.23" data-paper-data="{&quot;index&quot;:null}" fill="#222222" fill-rule="nonzero" stroke="none"/><path d="M252.06354,232.699c-1.676,0.45 -3.24,-1.019 -2.898,-2.72c0.086,-0.438 0.048,-0.891 -0.114,-1.308l-3.129,-8.047c-1.71,-4.397 0.777,-9.306 5.334,-10.527c2.05178,-0.54901 4.23807,-0.25155 6.0686,0.82567c1.83053,1.07722 3.15211,2.84407 3.6684,4.90433l2.84,11.337c0.30925,1.23846 -0.4311,2.49626 -1.664,2.827l-10.106,2.709" data-paper-data="{&quot;index&quot;:null}" fill="#222222" fill-rule="nonzero" stroke="none"/><path d="M263.36554,210.77c0.9,10.288 -6.126,12.683 -14.984,13.457c-8.858,0.774 -16.194,-0.362 -17.093,-10.65c-0.901,-10.29 3.787,-30.145 13.45,-30.991c9.663,-0.846 17.727,17.895 18.627,28.183" data-paper-data="{&quot;index&quot;:null}" fill="#222222" fill-rule="nonzero" stroke="none"/><path d="M236.20754,195.719l5.64,-0.507c1.539,0.033 2.97,0.53 4.2,1.368c0,0 1.228,0.673 1.628,0.817c1.365,0.5 3.746,1.132 6.533,0.826c2.134,-0.234 3.956,-0.7 5.372,-1.215c2.084,4.786 3.445,9.877 3.785,13.762c0.198,2.263 0.012,4.145 -0.492,5.71c-0.54,-0.184 -1.032,-0.413 -1.445,-0.7c-0.855,-0.835 -2.606,-2.058 -5.35,-1.771c-2.22,0.232 -3.783,1.425 -4.746,2.462c-2.72,2.513 -7.376,2.92 -9.393,2.975c-0.54288,0.01408 -1.08463,0.0568 -1.623,0.128c-1.564,0.209 -4.751,0.457 -7.535,-0.43c-0.778,-1.458 -1.294,-3.288 -1.493,-5.568c-0.393,-4.484 0.276,-10.786 1.957,-16.54c0.88069,-0.64767 1.89117,-1.09697 2.962,-1.317" data-paper-data="{&quot;index&quot;:null}" fill="#ffffff" fill-rule="nonzero" stroke="none"/><path d="M231.18054,211.066c2.742,0.904 5.97,0.628 7.432,0.43c0.55484,-0.07581 1.11327,-0.12254 1.673,-0.14c1.851,-0.056 6.43,-0.445 9.045,-2.858c0.981,-1.056 2.648,-2.362 5.04,-2.62c2.946,-0.322 4.834,1.015 5.715,1.862c0.781,0.528 1.868,0.847 3.032,1.035c0.055,0.35 0.104,0.693 0.145,1.03c-1.424,-0.204 -2.796,-0.586 -3.778,-1.265l-0.065,-0.053c-0.74,-0.723 -2.367,-1.89 -4.94,-1.615c-2.097,0.226 -3.565,1.386 -4.428,2.32l-0.027,0.026c-2.86,2.655 -7.742,3.078 -9.708,3.137c-0.525,0.016 -1.052,0.06 -1.569,0.13c-1.484,0.202 -4.679,0.474 -7.547,-0.368c-0.013,-0.343 -0.02,-0.694 -0.02,-1.05" data-paper-data="{&quot;index&quot;:null}" fill="#bbbbbb" fill-rule="nonzero" stroke="none"/><path d="M237.79354,192.593c0.33436,-0.21566 0.75803,-0.23773 1.113,-0.058l1.944,0.99c0.35522,0.18042 0.58678,0.5371 0.607,0.935l0.114,2.178c0.02214,0.39817 -0.17102,0.77762 -0.506,0.994l-1.83,1.188c-0.33326,0.21792 -0.75788,0.24006 -1.112,0.058l-1.943,-0.99c-0.35477,-0.1816 -0.5863,-0.53805 -0.608,-0.936l-0.114,-2.177c-0.02214,-0.39817 0.17102,-0.77762 0.506,-0.994z" data-paper-data="{&quot;index&quot;:null}" fill="#00bbff" fill-rule="nonzero" stroke="none"/><path d="M237.13254,194.157c0.08701,-0.00578 0.17261,0.0242 0.237,0.083l1,0.9c0.06632,0.06063 0.1692,0.05616 0.23,-0.01l0.9,-1.002c0.05865,-0.06583 0.14187,-0.10454 0.23,-0.107c0.1785,-0.00345 0.32738,0.13568 0.336,0.314l0.133,2.572c0.01063,0.17589 -0.11881,0.3291 -0.294,0.348c-0.08762,0.00772 -0.17462,-0.02052 -0.241,-0.07823c-0.06638,-0.05771 -0.10645,-0.13993 -0.111,-0.22777l-0.084,-1.61c-0.00023,-0.03374 -0.02161,-0.0637 -0.05343,-0.0749c-0.03182,-0.0112 -0.06725,-0.00124 -0.08857,0.0249l-0.572,0.634c-0.11967,0.13261 -0.32409,0.14334 -0.457,0.024l-0.634,-0.572c-0.02429,-0.02179 -0.05929,-0.02687 -0.08878,-0.01289c-0.02949,0.01398 -0.04771,0.04429 -0.04622,0.07689l0.084,1.604c0.0116,0.17839 -0.12361,0.3324 -0.302,0.344c-0.17839,0.0116 -0.3324,-0.12361 -0.344,-0.302l-0.136,-2.58c-0.01038,-0.17871 0.12361,-0.33311 0.302,-0.348" data-paper-data="{&quot;index&quot;:null}" fill="#ffffff" fill-rule="nonzero" stroke="none"/><path d="M262.87554,218.207c-0.025,0.52 -0.312,1.002 -0.765,1.268c-0.74088,0.42926 -1.68929,0.18111 -2.125,-0.556c-0.084,-0.144 -0.143,-0.297 -0.177,-0.459l-0.126,-1.493c0.02387,-0.52623 0.31154,-1.00493 0.765,-1.273c0.23775,-0.13856 0.50782,-0.21203 0.783,-0.213v0.201v-0.201c0.72987,0.00119 1.36096,0.50922 1.518,1.222z" data-paper-data="{&quot;index&quot;:null}" fill="#c1c1c1" fill-rule="nonzero" stroke="none"/><path d="M261.23154,215.681c0.70318,-0.00138 1.28966,0.53724 1.348,1.238h0.001l0.094,1.101h-0.002c0.03176,0.72441 -0.51361,1.3449 -1.23611,1.40636c-0.7225,0.06146 -1.36484,-0.45799 -1.45589,-1.17736h-0.002l-0.094,-1.099c-0.03186,-0.37702 0.09549,-0.75018 0.3512,-1.02906c0.25571,-0.27888 0.61644,-0.43805 0.9948,-0.43894" data-paper-data="{&quot;index&quot;:null}" fill="#ffffff" fill-rule="nonzero" stroke="none"/><path d="M264.40754,216.314c0.70995,-0.0019 1.33007,0.47968 1.504,1.168l0.182,1.493c-0.00482,0.52641 -0.27482,1.01488 -0.718,1.299c-0.42008,0.26574 -0.94194,0.31449 -1.40397,0.13114c-0.46203,-0.18335 -0.80847,-0.57666 -0.93203,-1.05814l-0.182,-1.492c0.00441,-0.85259 0.6974,-1.54111 1.55,-1.54" data-paper-data="{&quot;index&quot;:null}" fill="#c1c1c1" fill-rule="nonzero" stroke="none"/><path d="M264.40754,216.514c0.68398,-0.00044 1.26054,0.51001 1.343,1.189h0.001l0.133,1.096c0.09057,0.74144 -0.43706,1.41593 -1.1785,1.5065c-0.74144,0.09057 -1.41593,-0.43706 -1.5065,-1.1785l-0.134,-1.096h0.002c-0.04756,-0.38417 0.07195,-0.77028 0.32822,-1.0604c0.25627,-0.29012 0.62468,-0.45638 1.01178,-0.4566" data-paper-data="{&quot;index&quot;:null}" fill="#ffffff" fill-rule="nonzero" stroke="none"/><path d="M267.20554,214.81c0.55426,-0.00024 1.06641,0.29569 1.343,0.776l0.58,1.388c0.29691,0.52024 0.26749,1.165 -0.07558,1.65603c-0.34307,0.49103 -0.93836,0.74044 -1.52899,0.64058c-0.59063,-0.09985 -1.07085,-0.53109 -1.23343,-1.10761l-0.582,-1.392c-0.1275,-0.46671 -0.03006,-0.96617 0.26351,-1.35073c0.29357,-0.38456 0.74968,-0.61022 1.23349,-0.61027" data-paper-data="{&quot;index&quot;:null}" fill="#c1c1c1" fill-rule="nonzero" stroke="none"/><path d="M267.20554,215.01c0.54516,-0.00142 1.03726,0.32638 1.246,0.83h0.002l0.426,1.018l-0.002,0.001c0.26663,0.68339 -0.06033,1.45473 -0.73686,1.73831c-0.67653,0.28358 -1.45578,-0.02406 -1.75614,-0.69331v0.001l-0.427,-1.019h0.001c-0.17447,-0.41756 -0.12879,-0.89467 0.12172,-1.27154c0.25051,-0.37687 0.67274,-0.60368 1.12528,-0.60446" data-paper-data="{&quot;index&quot;:null}" fill="#ffffff" fill-rule="nonzero" stroke="none"/><path d="M256.73454,214.877l0.179,-1.09l0.004,0.001c0.10086,-0.62381 0.62096,-1.09419 1.25173,-1.13209c0.63078,-0.03789 1.20344,0.36684 1.37827,0.97409c0.058,0.2 0.063,0.401 0.032,0.595l0.004,0.001l-0.179,1.088l-0.57,-0.092c-0.067,0.032 -0.136,0.062 -0.209,0.084c-0.126,0.036 -0.253,0.053 -0.378,0.053c-0.35,0 -0.673,-0.149 -0.921,-0.385z" data-paper-data="{&quot;index&quot;:null}" fill="#c1c1c1" fill-rule="nonzero" stroke="none"/><path d="M258.24954,212.853c0.509,0 0.964,0.343 1.106,0.833c0.08619,0.29322 0.05125,0.60874 -0.097,0.876c-0.14673,0.26863 -0.39483,0.4674 -0.689,0.552c-0.61132,0.17403 -1.24865,-0.17722 -1.428,-0.787c-0.085,-0.296 -0.052,-0.607 0.098,-0.877c0.148,-0.27 0.393,-0.466 0.688,-0.55c0.106,-0.03 0.214,-0.047 0.322,-0.047" data-paper-data="{&quot;index&quot;:null}" fill="#ffffff" fill-rule="nonzero" stroke="none"/><path d="M258.07054,213.743c0.74752,0.00083 1.35283,0.60748 1.352,1.355c-0.00083,0.74752 -0.60748,1.35283 -1.355,1.352c-0.74752,-0.00083 -1.35283,-0.60748 -1.352,-1.355c0.00083,-0.74752 0.60748,-1.35283 1.355,-1.352" data-paper-data="{&quot;index&quot;:null}" fill="#c1c1c1" fill-rule="nonzero" stroke="none"/><path d="M258.07054,213.942c0.51196,0.00261 0.96156,0.34083 1.106,0.832c0.08647,0.29352 0.05152,0.60947 -0.097,0.877c-0.14682,0.26856 -0.39488,0.4673 -0.689,0.552c-0.61089,0.17294 -1.24731,-0.17736 -1.428,-0.786c-0.1027,-0.34857 -0.03461,-0.72517 0.18364,-1.01571c0.21825,-0.29054 0.56098,-0.46083 0.92436,-0.45929" data-paper-data="{&quot;index&quot;:null}" fill="#ffffff" fill-rule="nonzero" stroke="none"/><path d="M254.85754,187.103c1.3963,0.03589 2.71114,0.66512 3.615,1.73c3.133,3.687 10.245,12.797 11.328,20.708c0.902,6.587 -3.558,8.644 -6.827,9.275c-1.782,0.345 -3.534,-0.72 -4.077,-2.45l-7.011,-22.338l-0.674,-1.922c-0.87,-2.484 1.016,-5.07 3.646,-5.004" data-paper-data="{&quot;index&quot;:null}" fill="#222222" fill-rule="nonzero" stroke="none"/><path d="M257.14354,210.785c1.53949,-1.89311 3.66938,-3.21527 6.049,-3.755c2.06886,-0.47712 4.2341,-0.31105 6.206,0.476c0.074,0.293 0.14,0.586 0.2,0.877c-4.218,-1.965 -9.298,-0.653 -12.19,3.245zM265.44054,198.486c-4.14181,-1.0448 -8.49047,0.6521 -10.83,4.226l-0.277,-0.881c1.2992,-1.75782 3.10339,-3.07782 5.172,-3.784c1.73959,-0.6 3.60405,-0.74358 5.415,-0.417c0.175,0.282 0.348,0.567 0.52,0.856" data-paper-data="{&quot;index&quot;:null}" fill="#6d6d6d" fill-rule="nonzero" stroke="none"/><path d="M243.79554,145.624c-0.553,5.261 -5.266,9.079 -10.526,8.524c-5.261,-0.552 -9.078,-5.265 -8.525,-10.525c0.26537,-2.5265 1.52357,-4.84409 3.4978,-6.44286c1.97422,-1.59877 4.50273,-2.34775 7.0292,-2.08214c5.26,0.553 9.078,5.266 8.524,10.527" data-paper-data="{&quot;index&quot;:null}" fill="#222222" fill-rule="nonzero" stroke="none"/><path d="M244.27054,144.007c5.661,-0.354 16.25,-0.202 23.72,5.932c7.47,6.133 9.328,12.138 10.097,16.228c0.769,4.09 1.994,12.615 -4.752,18.895c-6.746,6.279 -14.111,6.374 -24.026,5.964c-9.917,-0.409 -17.045,-2.262 -22.84,-4.877c-5.796,-2.616 -7.946,-7.751 -8.23,-10.311c-0.283,-2.56 0.858,-8.169 1.907,-11.126c1.049,-2.957 4.638,-12.372 10.767,-16.457c6.127,-4.085 13.357,-4.248 13.357,-4.248" data-paper-data="{&quot;index&quot;:null}" fill="#ffffff" fill-rule="nonzero" stroke="none"/><path d="M246.19954,168.917l0.043,1c-5.65018,0.24085 -11.27944,-0.82942 -16.447,-3.127l0.407,-0.913c5.02658,2.2333 10.50159,3.27374 15.997,3.04M221.16354,162.056c0.643,-0.062 1.132,-0.348 1.48,-0.86c0.57,-0.837 1.224,-2.638 1.98,-4.724c0.33,-0.911 0.683,-1.88 1.06,-2.861c0.67969,-0.97237 1.4258,-1.89657 2.233,-2.766c-0.9,1.964 -1.671,4.089 -2.353,5.968l-2.093,4.947c-0.448,0.656 -1.264,1.344 -2.71,1.304c0.13148,-0.33713 0.26582,-0.67315 0.403,-1.008M254.38654,168.324c0.394,-0.934 0.68,-2.828 1.01,-5.023c0.561,-3.739 1.261,-8.392 2.91,-11.477c2.752,-5.156 6.366,-5.639 8.123,-4.706c2.945,1.563 5.21,6.581 6.345,10.755l-0.964,0.263c-1.65,-6.059 -4.104,-9.208 -5.85,-10.135c-1.403,-0.744 -4.365,-0.216 -6.773,4.293c-1.567,2.935 -2.252,7.493 -2.803,11.157c-0.34,2.26 -0.634,4.212 -1.077,5.262c-0.379,0.9 -1.295,1.956 -3.5,1.883l0.032,-0.999c1.334,0.043 2.167,-0.373 2.547,-1.273M225.56354,156.813c-0.779,2.149 -1.452,4.005 -2.094,4.946" data-paper-data="{&quot;index&quot;:null}" fill="#bbbbbb" fill-rule="nonzero" stroke="none"/><path d="M220.14654,164.712c0.487,-1.375 1.526,-4.149 3.113,-7.132c0.60229,-0.20402 1.2177,-0.36706 1.842,-0.488c0.40847,-0.09917 0.82464,-0.1634 1.244,-0.192h0.008c2.2255,-0.15744 4.40656,0.67829 5.95701,2.28258c1.55045,1.60429 2.31127,3.81259 2.07799,6.03142l-0.683,6.503c-0.43557,4.14402 -4.14796,7.15037 -8.292,6.715l-5.863,-0.616c-0.30043,-0.03187 -0.59865,-0.08196 -0.893,-0.15c-0.20096,-0.59392 -0.34102,-1.20674 -0.418,-1.829c-0.284,-2.56 0.858,-8.168 1.907,-11.125" data-paper-data="{&quot;index&quot;:null}" fill="#222222" fill-rule="nonzero" stroke="none"/><path d="M248.76454,169.306l-2.543,0.11" data-paper-data="{&quot;index&quot;:null}" fill="none" fill-rule="evenodd" stroke="#bbbbbb"/><path d="M240.82254,174.313c0.767,0 1.389,-0.453 1.42,-0.477c0.15043,-0.1037 0.23232,-0.28119 0.21358,-0.46293c-0.01873,-0.18174 -0.13511,-0.3388 -0.30352,-0.40963c-0.16842,-0.07083 -0.36206,-0.04416 -0.50506,0.06956c-0.004,0.002 -0.571,0.405 -1.077,0.242c-0.44,-0.143 -0.705,-0.698 -0.85,-1.14c-0.082,-0.252 -0.271,-0.416 -0.505,-0.441c-0.235,-0.025 -0.455,0.097 -0.587,0.326c-0.234,0.403 -0.61,0.893 -1.073,0.94c-0.518,0.053 -0.993,-0.456 -0.998,-0.462c-0.18308,-0.20711 -0.49939,-0.22658 -0.7065,-0.0435c-0.20711,0.18308 -0.22658,0.49939 -0.0435,0.7065c0.034,0.036 0.806,0.896 1.848,0.794c0.52,-0.052 0.992,-0.325 1.408,-0.814c0.305,0.565 0.709,0.93 1.208,1.089c0.17787,0.05634 0.36342,0.08467 0.55,0.084M254.80454,159.773c0.43848,0.04635 0.8721,0.13066 1.296,0.252h0.001c0.40633,0.11634 0.80207,0.26688 1.183,0.45c8.062,3.42 9.333,12.567 9.333,12.567c0.42624,2.3382 -0.27402,4.74056 -1.88986,6.48352c-1.61584,1.74295 -3.95841,2.62278 -6.32214,2.37448l-5.862,-0.615c-4.14428,-0.4361 -7.15079,-4.14858 -6.716,-8.293l0.685,-6.504c0.20891,-1.99014 1.19996,-3.81574 2.75507,-5.07509c1.5551,-1.25935 3.54684,-1.84925 5.53693,-1.63991" data-paper-data="{&quot;index&quot;:null}" fill="#222222" fill-rule="nonzero" stroke="none"/><path d="M251.94354,176.544c-3.116,-0.333 -5.375,-3.413 -5.02,-6.843c0.355,-3.431 3.195,-5.966 6.31,-5.633c3.117,0.333 5.376,3.413 5.02,6.844c-0.354,3.431 -3.194,5.965 -6.31,5.632" data-paper-data="{&quot;index&quot;:null}" fill="#ffffff" fill-rule="nonzero" stroke="none"/><path d="M248.43354,169.862c0.262,-2.526 2.333,-4.376 4.628,-4.13c2.295,0.245 3.943,2.491 3.683,5.018c-0.263,2.527 -2.335,4.376 -4.63,4.132c-2.294,-0.247 -3.941,-2.494 -3.681,-5.02" data-paper-data="{&quot;index&quot;:null}" fill="#222222" fill-rule="nonzero" stroke="none"/><path d="M252.78154,168.013c0.1099,-1.04271 1.04429,-1.7989 2.087,-1.689c1.04271,0.1099 1.7989,1.04429 1.689,2.087c-0.1099,1.04299 -1.04451,1.7994 -2.0875,1.6895c-1.04299,-0.1099 -1.7994,-1.04451 -1.6895,-2.0875" data-paper-data="{&quot;index&quot;:null}" fill="#ffffff" fill-rule="nonzero" stroke="none"/><path d="M235.90554,168.483c0.13485,-1.25005 1.25426,-2.15631 2.505,-2.028l2.723,0.286c1.25017,0.13486 2.15671,1.25408 2.029,2.505l-0.01,0.087c-0.065,0.623 -0.38,1.163 -0.834,1.53l-0.75,0.615l-0.735,0.596c-0.47428,0.38505 -1.08256,0.56501 -1.69,0.5c-0.60711,-0.0632 -1.1641,-0.36544 -1.548,-0.84l-0.597,-0.737l-0.605,-0.756c-0.38068,-0.46907 -0.55945,-1.07013 -0.497,-1.671zM248.88654,152.59c0.02,-0.004 0.037,0.003 0.056,0l-0.002,-0.01l3.288,-0.482c0.59069,-0.10118 1.15503,0.28479 1.27495,0.87195c0.11992,0.58717 -0.2479,1.16351 -0.83095,1.30205l-3.209,0.854l-0.002,-0.011c-0.02,0.005 -0.035,0.019 -0.055,0.023c-0.70361,0.14359 -1.39041,-0.31039 -1.534,-1.014c-0.14359,-0.70361 0.31039,-1.39041 1.014,-1.534M229.14154,150.399c0.11722,-0.26996 0.33702,-0.48219 0.61092,-0.58988c0.2739,-0.10768 0.57939,-0.10197 0.84908,0.01588l3.116,1.155l-0.004,0.009c0.018,0.007 0.037,0.004 0.055,0.012c0.65832,0.28691 0.95941,1.05318 0.6725,1.7115c-0.28691,0.65832 -1.05318,0.95941 -1.7115,0.6725c-0.019,-0.008 -0.03,-0.025 -0.048,-0.033l-0.005,0.009l-2.96,-1.502c-0.56176,-0.24457 -0.81912,-0.89805 -0.575,-1.46" data-paper-data="{&quot;index&quot;:null}" fill="#222222" fill-rule="nonzero" stroke="none"/><path d="M227.02854,173.881c-3.116,-0.333 -5.375,-3.413 -5.021,-6.844c0.356,-3.43 3.196,-5.965 6.312,-5.632c3.115,0.333 5.375,3.413 5.02,6.843c-0.356,3.431 -3.196,5.966 -6.311,5.633" data-paper-data="{&quot;index&quot;:null}" fill="#ffffff" fill-rule="nonzero" stroke="none"/><path d="M231.81054,168.085c-0.26,2.526 -2.333,4.375 -4.628,4.13c-2.294,-0.245 -3.942,-2.492 -3.68,-5.018c0.26,-2.527 2.332,-4.376 4.627,-4.13c2.294,0.245 3.943,2.492 3.681,5.018M265.91354,151.374c-0.93137,-1.02453 -1.96396,-1.95225 -3.082,-2.769c0.05048,-0.39457 0.12529,-0.78565 0.224,-1.171c1.323,-5.122 6.548,-8.202 11.67,-6.878c5.122,1.323 8.201,6.548 6.877,11.67c-1.22,4.727 -5.765,7.711 -10.484,7.103c-1.017,-2.432 -2.633,-5.11 -5.205,-7.955" data-paper-data="{&quot;index&quot;:null}" fill="#222222" fill-rule="nonzero" stroke="none"/><path d="M231.68754,165.796c-0.05407,0.68814 -0.47727,1.29275 -1.10532,1.57912c-0.62805,0.28637 -1.36204,0.20939 -1.91701,-0.20104c-0.55498,-0.41044 -0.84354,-1.08969 -0.75366,-1.77408c0.13404,-1.02073 1.05702,-1.74876 2.0809,-1.64138c1.02388,0.10738 1.77574,1.01105 1.6951,2.03738" data-paper-data="{&quot;index&quot;:null}" fill="#ffffff" fill-rule="nonzero" stroke="none"/><path d="M234.25854,133.044c0.405,0 0.816,0.022 1.222,0.064c4.89,0.50095 8.92443,4.04754 10.048,8.833c0.72033,-0.02812 1.44113,-0.04245 2.162,-0.043c5.453,0 10.307,0.814 14.464,2.423c2.00912,-3.74756 5.92087,-6.08199 10.173,-6.071c0.973,0 1.949,0.124 2.899,0.37c2.97654,0.75997 5.52528,2.67927 7.078,5.33c1.56816,2.64264 2.01327,5.80303 1.236,8.776c-0.76508,2.9591 -2.67109,5.4947 -5.301,7.052c1.056,2.419 1.535,4.533 1.814,6.02c0.623,3.314 2.519,13.398 -5.355,20.728c-3.21,2.988 -6.672,4.84 -10.937,5.8c3.558,4.888 7.226,11.138 8.02,16.945c0.349,2.543 0.027,4.749 -0.956,6.576l0.149,0.355c0.03384,0.08136 0.06224,0.16487 0.085,0.25c0.29485,1.08967 0.0545,2.2546 -0.64756,3.13859c-0.70206,0.88398 -1.78231,1.38187 -2.91044,1.34141c-0.27,0.406 -0.626,0.758 -1.053,1.029c-0.51595,0.32936 -1.10868,0.51889 -1.72,0.55l1.045,4.167c0.57,2.283 -0.813,4.636 -3.086,5.245l-10.106,2.708c-1.64858,0.44644 -3.40545,-0.11985 -4.483,-1.445c-0.82424,-1.00449 -1.15257,-2.32662 -0.894,-3.6c0.01307,-0.06355 0.00751,-0.12953 -0.016,-0.19l-1.1,-2.828l-3.73,6.22c-0.78738,1.3046 -2.19822,2.10402 -3.722,2.109c-0.76,0 -1.51,-0.202 -2.168,-0.582l-9.061,-5.232c-1.3035,-0.7469 -2.12443,-2.11828 -2.167,-3.62c-0.03235,-0.9367 0.24109,-1.85847 0.779,-2.626c-0.60156,-0.0519 -1.17987,-0.25672 -1.68,-0.595c-0.42,-0.283 -0.765,-0.644 -1.023,-1.058h-0.035c-1.04587,0.00052 -2.03866,-0.46056 -2.713,-1.26c-0.7773,-0.91732 -1.036,-2.1664 -0.687,-3.317c0.02515,-0.08396 0.05589,-0.16614 0.092,-0.246l0.158,-0.35c-0.933,-1.854 -1.194,-4.068 -0.777,-6.6c1.18,-7.17 6.763,-14.845 10.84,-19.646c-1.54372,-0.52392 -3.06116,-1.12229 -4.547,-1.793c-6.708,-3.027 -9.062,-8.913 -9.395,-11.913c-0.346,-3.113 0.969,-9.08 2.01,-12.015c1.056,-2.977 3.244,-8.332 6.599,-12.674c-1.6574,-2.30273 -2.40725,-5.13587 -2.106,-7.957c0.60421,-5.89681 5.57532,-10.37829 11.503,-10.37M234.25854,135.043c-4.84,0 -8.997,3.658 -9.514,8.579c-0.30263,2.85543 0.69464,5.6956 2.716,7.735c-4.04,4.59 -6.48,11.006 -7.313,13.355c-1.05,2.957 -2.192,8.566 -1.908,11.126c0.285,2.56 2.435,7.696 8.23,10.31c2.38142,1.07144 4.84332,1.95416 7.363,2.64c-0.216,0.17 -0.43,0.348 -0.617,0.556c-3.231,3.599 -10.59,12.513 -11.888,20.392c-0.453,2.753 0.065,4.727 1.052,6.153l-0.583,1.294c-0.15064,0.50286 -0.03828,1.04776 0.299,1.45c0.32142,0.38012 0.80557,0.58312 1.30197,0.54591c0.4964,-0.03721 0.94488,-0.31012 1.20603,-0.73391l0.182,-0.406c0.053,0.03 0.108,0.056 0.16,0.085l-0.17,1.142c-0.00935,0.52644 0.2475,1.02208 0.683,1.318c0.41279,0.27999 0.93511,0.34422 1.40344,0.17259c0.46833,-0.17164 0.82545,-0.55816 0.95956,-1.03859l0.078,-0.525c0.093,0.022 0.185,0.023 0.278,0.036c0.1237,0.26431 0.32,0.48801 0.566,0.645c0.24598,0.15348 0.53007,0.2349 0.82,0.235c0.21415,-0.00305 0.42532,-0.05073 0.62,-0.14l-1.057,2.404c-0.18,0.409 -0.472,0.758 -0.845,1.006c-1.444,0.96 -1.377,3.104 0.126,3.973l9.06,5.23c1.10565,0.63825 2.51881,0.27249 3.176,-0.822l4.404,-7.347c0.76945,-0.01792 1.53834,-0.05459 2.306,-0.11l1.698,4.368c0.163,0.417 0.202,0.87 0.114,1.309c-0.3,1.49 0.864,2.8 2.284,2.8c0.2,0 0.407,-0.025 0.614,-0.081l10.106,-2.708c1.2336,-0.32981 1.9744,-1.58837 1.664,-2.827l-1.907,-7.612c0.062,-0.027 0.127,-0.044 0.185,-0.077c0.25031,-0.15101 0.45278,-0.36977 0.584,-0.631c0.092,-0.01 0.185,-0.01 0.278,-0.027v-0.001l0.066,0.532c0.1224,0.48252 0.46911,0.87688 0.93197,1.06009c0.46286,0.1832 0.98555,0.13295 1.40503,-0.13509c0.4425,-0.28416 0.71206,-0.77214 0.717,-1.298l-0.14,-1.147c0.055,-0.027 0.11,-0.052 0.164,-0.081l0.174,0.415c0.25029,0.42916 0.6908,0.71267 1.18509,0.76271c0.49429,0.05004 0.98268,-0.13942 1.31391,-0.50971c0.34789,-0.39289 0.47524,-0.93422 0.339,-1.441l-0.548,-1.311c1.026,-1.397 1.598,-3.356 1.219,-6.121c-0.917,-6.7 -6.151,-14.247 -9.637,-18.644c4.885,-0.547 9.142,-2.083 13.173,-5.836c6.746,-6.28 5.52,-14.805 4.752,-18.894c-0.384,-2.041 -1.04,-4.558 -2.526,-7.33c2.98568,-1.06533 5.24843,-3.54236 6.04,-6.612c1.325,-5.122 -1.755,-10.347 -6.876,-11.67c-0.78387,-0.20291 -1.59029,-0.30573 -2.4,-0.306c-4.17393,0.00794 -7.86234,2.71741 -9.118,6.698c-5.236,-2.473 -11.057,-3.05 -15.518,-3.05c-1.264,0 -2.42,0.047 -3.42,0.109c0,0 -0.17,0.006 -0.45,0.024c-0.28,-4.587 -3.827,-8.437 -8.55,-8.934c-0.34,-0.035 -0.677,-0.053 -1.012,-0.053" data-paper-data="{&quot;index&quot;:null}" fill="#000000" fill-rule="nonzero" stroke="none"/></g></g></svg>