<svg version="1.1" xmlns="http://www.w3.org/2000/svg" xmlns:xlink="http://www.w3.org/1999/xlink" width="67.94316" height="103.93101" viewBox="0,0,67.94316,103.93101"><g transform="translate(-216.17005,-131.44299)"><g data-paper-data="{&quot;isPaintingLayer&quot;:true}" stroke-width="1" stroke-linecap="butt" stroke-linejoin="miter" stroke-miterlimit="10" stroke-dasharray="" stroke-dashoffset="0" style="mix-blend-mode: normal"><path d="M234.45727,131.444c0.406,0 0.817,0.022 1.223,0.064c4.88974,0.50153 8.92389,4.04787 10.048,8.833c0.71966,-0.02812 1.43979,-0.04245 2.16,-0.043c5.455,0 10.309,0.814 14.465,2.423c2.00929,-3.7474 5.92093,-6.08177 10.173,-6.071c0.974,0 1.949,0.124 2.899,0.37c2.97691,0.75973 5.52605,2.67905 7.079,5.33c1.56739,2.64293 2.01211,5.80314 1.235,8.776c-0.76477,2.95925 -2.67086,5.49495 -5.301,7.052c1.056,2.419 1.535,4.533 1.815,6.02c0.623,3.314 2.519,13.398 -5.355,20.728c-2.851,2.653 -5.978,4.437 -9.645,5.474c3.925,3.897 8.046,8.896 9.725,13.96c0.809,2.435 0.896,4.663 0.265,6.639l0.212,0.322c0.04795,0.07465 0.09136,0.15213 0.13,0.232c0.52241,1.08119 0.46181,2.35336 -0.161,3.38c-0.54513,0.90776 -1.46915,1.52267 -2.517,1.675c-0.192,0.448 -0.477,0.859 -0.846,1.204c-0.66,0.615 -1.521,0.954 -2.423,0.954c-0.664,0 -1.312,-0.188 -1.87,-0.532c-1.26301,0.56359 -2.7384,0.34189 -3.78,-0.568c-0.973,1.69 -2.381,3.069 -4.212,4.126l-0.757,4.68c-0.25399,1.59553 -1.3782,2.91541 -2.913,3.42l-0.255,1.302c-0.13,2.254 -2.013,4.07 -4.294,4.09l-10.462,0.09c-1.542,0 -2.916,-0.76 -3.715,-2.034c-0.79735,-1.26486 -0.88361,-2.85219 -0.228,-4.196c0.02873,-0.05823 0.04018,-0.12347 0.033,-0.188l-0.374,-3.148c-0.9743,-0.99774 -1.72734,-2.18965 -2.21,-3.498c-1.848,-1.291 -3.21,-3.094 -4.077,-5.39c-0.38018,0.12004 -0.7789,0.17051 -1.177,0.149c-0.042,0.044 -0.086,0.087 -0.13,0.13l-0.014,0.053c-0.02,0.08 -0.046,0.16 -0.077,0.239c-0.53315,1.35894 -1.84522,2.25178 -3.305,2.249c-0.474,0 -0.943,-0.095 -1.376,-0.278c-1.34529,0.86995 -3.10614,0.73321 -4.301,-0.334c-0.376,-0.337 -0.67,-0.742 -0.87,-1.186c-1.0502,-0.13172 -1.98602,-0.72734 -2.55,-1.623c-0.64869,-1.0179 -0.73351,-2.29632 -0.225,-3.391c0.0337,-0.07239 0.07142,-0.14283 0.113,-0.211l0.209,-0.341c-0.67,-1.962 -0.627,-4.188 0.13,-6.638c2.098,-6.784 8.422,-13.472 13.087,-17.695c-1.42156,-0.4942 -2.82029,-1.05176 -4.192,-1.671c-6.708,-3.027 -9.062,-8.913 -9.395,-11.913c-0.346,-3.113 0.969,-9.08 2.01,-12.015c1.056,-2.977 3.244,-8.332 6.599,-12.674c-1.6574,-2.30273 -2.40725,-5.13587 -2.106,-7.957c0.60421,-5.89681 5.57532,-10.37829 11.503,-10.37" data-paper-data="{&quot;index&quot;:null}" fill="#000000" fill-rule="nonzero" stroke="none"/><path d="M241.07727,233.375c-1.734,0.015 -2.881,-1.798 -2.126,-3.358c0.196,-0.403 0.272,-0.852 0.22,-1.296l-1.015,-8.575c-0.555,-4.685 3.082,-8.813 7.8,-8.854c4.427,-0.039 10.227,3.558 10.192,7.984l-2.29,11.688c-0.01032,1.27661 -1.04239,2.30913 -2.319,2.32l-10.462,0.091" data-paper-data="{&quot;index&quot;:null}" fill="#222222" fill-rule="nonzero" stroke="none"/><path d="M257.04427,226.152c-0.277,1.712 -2.257,2.539 -3.668,1.529c-0.3636,-0.25945 -0.7939,-0.40936 -1.24,-0.432l-8.624,-0.444c-4.711,-0.241 -8.169,-4.521 -7.416,-9.178c0.707,-4.371 5.229,-9.483 9.587,-8.704l11.134,4.224c1.25674,0.22487 2.10128,1.41559 1.898,2.676l-1.671,10.329" data-paper-data="{&quot;index&quot;:null}" fill="#222222" fill-rule="nonzero" stroke="none"/><path d="M228.17727,213.719l0.001,-1.104h0.006c-0.00222,-0.20111 0.04121,-0.4001 0.127,-0.582c0.15457,-0.3236 0.43146,-0.57247 0.76965,-0.69177c0.3382,-0.1193 0.70995,-0.09923 1.03335,0.05577c0.46905,0.22499 0.76677,0.69979 0.765,1.22h0.005v1.106l-0.587,-0.001c-0.225,0.156 -0.49,0.248 -0.767,0.248c-0.27858,0.00275 -0.55053,-0.08498 -0.775,-0.25z" data-paper-data="{&quot;index&quot;:null}" fill="#c1c1c1" fill-rule="nonzero" stroke="none"/><path d="M229.53227,211.464c0.39605,-0.001 0.76475,0.20186 0.97587,0.53695c0.21113,0.33508 0.23498,0.75523 0.06313,1.11205c-0.19,0.399 -0.599,0.656 -1.041,0.656c-0.39523,-0.00156 -0.76222,-0.2051 -0.97282,-0.53954c-0.2106,-0.33445 -0.23557,-0.75336 -0.06618,-1.11046c0.19,-0.398 0.6,-0.655 1.041,-0.655" data-paper-data="{&quot;index&quot;:null}" fill="#ffffff" fill-rule="nonzero" stroke="none"/><path d="M229.53127,212.567c0.48916,-0.00116 0.92522,0.30802 1.086,0.77c0.10248,0.28784 0.08555,0.60471 -0.047,0.88c-0.19,0.399 -0.599,0.657 -1.041,0.657c-0.42616,0.02137 -0.82938,-0.19396 -1.04866,-0.56c-0.21928,-0.36604 -0.21888,-0.82316 0.00103,-1.18882c0.21991,-0.36566 0.62351,-0.58029 1.04963,-0.55818" data-paper-data="{&quot;index&quot;:null}" fill="#ffffff" fill-rule="nonzero" stroke="none"/><path d="M226.09427,213.565c0.361,0 0.714,0.127 0.992,0.358c0.40345,0.33833 0.60944,0.85706 0.548,1.38l-0.37,1.457c-0.18259,0.46327 -0.57663,0.81061 -1.05915,0.93362c-0.48252,0.12301 -0.99476,0.0067 -1.37685,-0.31262c-0.40216,-0.33823 -0.60701,-0.85619 -0.545,-1.378v-0.003l0.369,-1.456c0.23397,-0.59198 0.80647,-0.98038 1.443,-0.979" data-paper-data="{&quot;index&quot;:null}" fill="#c1c1c1" fill-rule="nonzero" stroke="none"/><path d="M226.09427,213.765c0.41727,0.00043 0.811,0.19336 1.06702,0.52286c0.25602,0.3295 0.34568,0.7587 0.24298,1.16314h0.002l-0.273,1.07h-0.002c-0.15253,0.59924 -0.69165,1.01901 -1.31,1.02c-0.41735,0.00015 -0.81131,-0.19274 -1.06713,-0.52249c-0.25582,-0.32975 -0.34475,-0.75929 -0.24087,-1.16351h-0.002l0.271,-1.07h0.002c0.15253,-0.59924 0.69165,-1.01901 1.31,-1.02" data-paper-data="{&quot;index&quot;:null}" fill="#ffffff" fill-rule="nonzero" stroke="none"/><path d="M222.82527,213.868c0.4535,0.00034 0.88417,0.19903 1.17877,0.54382c0.2946,0.34479 0.42365,0.80118 0.35323,1.24918l-0.423,1.443c-0.20034,0.45497 -0.60627,0.78663 -1.09205,0.89226c-0.48578,0.10562 -0.99277,-0.02755 -1.36395,-0.35826c-0.392,-0.352 -0.577,-0.883 -0.497,-1.397l0.422,-1.444c0.24786,-0.56424 0.80572,-0.92869 1.422,-0.929" data-paper-data="{&quot;index&quot;:null}" fill="#c1c1c1" fill-rule="nonzero" stroke="none"/><path d="M222.82527,214.068c0.42602,0.00029 0.82699,0.20136 1.08204,0.5426c0.25505,0.34124 0.33433,0.78274 0.21396,1.1914h0.002l-0.311,1.06h-0.002c-0.05551,0.19307 -0.15435,0.37092 -0.289,0.52c-0.42005,0.4743 -1.11342,0.59269 -1.66705,0.28464c-0.55363,-0.30805 -0.81856,-0.95966 -0.63695,-1.56664l-0.001,-0.001l0.31,-1.058h0.001c0.16784,-0.57711 0.69698,-0.97376 1.298,-0.973" data-paper-data="{&quot;index&quot;:null}" fill="#ffffff" fill-rule="nonzero" stroke="none"/><path d="M220.30927,211.929c0.535,0 1.026,0.27 1.312,0.72c0.28064,0.44508 0.31751,1.0018 0.098,1.48l0.012,0.008l-0.106,0.17l-0.708,1.1c-0.2931,0.35697 -0.73112,0.56331 -1.193,0.562c-0.535,0 -1.025,-0.27 -1.312,-0.721c-0.28067,-0.44624 -0.31716,-1.004 -0.097,-1.483l0.785,-1.277l0.012,0.007c0.29393,-0.35863 0.73331,-0.56639 1.197,-0.566" data-paper-data="{&quot;index&quot;:null}" fill="#c1c1c1" fill-rule="nonzero" stroke="none"/><path d="M220.30927,212.129c0.49219,-0.00038 0.9457,0.26675 1.184,0.6974c0.2383,0.43065 0.22375,0.95678 -0.038,1.3736v0.001l-0.586,0.934c-0.39737,0.63237 -1.23213,0.82287 -1.8645,0.4255c-0.63237,-0.39737 -0.82287,-1.23213 -0.4255,-1.8645h-0.001l0.587,-0.934v0.001c0.24585,-0.39514 0.67862,-0.63498 1.144,-0.634" data-paper-data="{&quot;index&quot;:null}" fill="#ffffff" fill-rule="nonzero" stroke="none"/><path d="M237.26427,186.626c2.606,0.363 4.044,3.222 2.78,5.531l-0.977,1.788l-10.559,20.895c-0.818,1.619 -2.722,2.383 -4.422,1.753c-3.123,-1.155 -7.187,-3.911 -5.223,-10.264c2.358,-7.629 10.86,-15.459 14.552,-18.585c1.06538,-0.90281 2.46472,-1.30938 3.848,-1.118" data-paper-data="{&quot;index&quot;:null}" fill="#222222" fill-rule="nonzero" stroke="none"/><path d="M230.74827,210.407c-2.218,-4.317 -7.016,-6.438 -11.498,-5.189c0.10672,-0.28032 0.22009,-0.55806 0.34,-0.833c2.07364,-0.45612 4.23721,-0.26664 6.2,0.543c2.26023,0.91934 4.14634,2.57092 5.356,4.69l-0.398,0.79zM224.96727,196.132c0.21461,-0.25542 0.43128,-0.5091 0.65,-0.761c1.84041,-0.02604 3.65681,0.41979 5.276,1.295c1.92576,1.03381 3.49064,2.63009 4.486,4.576l-0.417,0.826c-1.72467,-3.90787 -5.7383,-6.29155 -9.995,-5.936" data-paper-data="{&quot;index&quot;:null}" fill="#6d6d6d" fill-rule="nonzero" stroke="none"/><path d="M263.56527,209.17c0.9,10.288 -6.126,12.682 -14.984,13.457c-8.858,0.774 -16.193,-0.362 -17.094,-10.651c-0.9,-10.288 3.787,-30.145 13.45,-30.99c9.664,-0.846 17.728,17.895 18.628,28.184" data-paper-data="{&quot;index&quot;:null}" fill="#222222" fill-rule="nonzero" stroke="none"/><path d="M236.40627,194.12l5.641,-0.508c1.538,0.033 2.97,0.53 4.199,1.368h0.002c0,0 1.226,0.672 1.626,0.817c1.365,0.5 3.747,1.131 6.533,0.825c2.135,-0.234 3.956,-0.699 5.372,-1.214c2.084,4.786 3.446,9.876 3.786,13.762c0.197,2.263 0.011,4.144 -0.493,5.711c-0.539,-0.186 -1.032,-0.415 -1.444,-0.7c-0.856,-0.836 -2.607,-2.059 -5.35,-1.772c-2.221,0.232 -3.783,1.425 -4.746,2.462c-2.72,2.512 -7.377,2.92 -9.394,2.975c-0.544,0.014 -1.084,0.057 -1.623,0.128c-1.564,0.208 -4.751,0.457 -7.535,-0.429c-0.777,-1.46 -1.294,-3.289 -1.493,-5.57c-0.393,-4.483 0.277,-10.785 1.957,-16.538c0.88036,-0.64844 1.89094,-1.09812 2.962,-1.318" data-paper-data="{&quot;index&quot;:null}" fill="#ffffff" fill-rule="nonzero" stroke="none"/><path d="M231.37927,209.467c2.743,0.903 5.97,0.628 7.433,0.429c0.55518,-0.07577 1.11394,-0.1225 1.674,-0.14c1.85,-0.056 6.429,-0.444 9.044,-2.857c0.98,-1.057 2.648,-2.363 5.04,-2.62c2.947,-0.322 4.834,1.014 5.716,1.86c0.78,0.529 1.867,0.849 3.03,1.036c0.057,0.35 0.105,0.694 0.146,1.03c-1.424,-0.204 -2.795,-0.586 -3.778,-1.264l-0.064,-0.054c-0.741,-0.722 -2.367,-1.891 -4.942,-1.614c-2.095,0.226 -3.564,1.385 -4.427,2.319l-0.027,0.026c-2.861,2.656 -7.742,3.078 -9.707,3.138c-0.526,0.016 -1.053,0.06 -1.57,0.13c-1.483,0.202 -4.68,0.474 -7.547,-0.37c-0.012,-0.341 -0.02,-0.692 -0.021,-1.05" data-paper-data="{&quot;index&quot;:null}" fill="#bbbbbb" fill-rule="nonzero" stroke="none"/><path d="M237.07827,191.587l0.915,-0.594c0.33357,-0.2181 0.75857,-0.24024 1.113,-0.058l0.972,0.495l0.972,0.495c0.35479,0.1809 0.58617,0.5373 0.607,0.935l0.057,1.089l0.057,1.089c0.01968,0.39738 -0.17293,0.77537 -0.506,0.993l-0.915,0.595l-0.915,0.594c-0.33375,0.21778 -0.75875,0.23954 -1.113,0.057l-0.972,-0.495l-0.971,-0.495c-0.35488,-0.18046 -0.58662,-0.53645 -0.608,-0.934l-0.056,-1.09l-0.058,-1.088c-0.02256,-0.39851 0.17116,-0.7783 0.507,-0.994h-0.001z" data-paper-data="{&quot;index&quot;:null}" fill="#00bbff" fill-rule="nonzero" stroke="none"/><path d="M237.33127,192.558c0.08722,-0.00645 0.17326,0.0232 0.238,0.082l1,0.9c0.06659,0.06037 0.16948,0.05545 0.23,-0.011l0.9,-1c0.0588,-0.0652 0.14129,-0.1041 0.229,-0.108c0.17887,-0.00344 0.3279,0.13628 0.336,0.315l0.134,2.572c0.01007,0.17551 -0.11922,0.32811 -0.294,0.347c-0.08762,0.00772 -0.17462,-0.02052 -0.241,-0.07823c-0.06638,-0.05771 -0.10645,-0.13993 -0.111,-0.22777l-0.084,-1.611c-0.00227,-0.03263 -0.02371,-0.0608 -0.05457,-0.07166c-0.03086,-0.01086 -0.06522,-0.00235 -0.08743,0.02166l-0.571,0.636c-0.0575,0.06409 -0.13821,0.10256 -0.22421,0.10688c-0.086,0.00432 -0.17016,-0.02588 -0.23379,-0.08388l-0.635,-0.571c-0.053,-0.05 -0.138,-0.008 -0.135,0.064l0.084,1.603c0.01115,0.17551 -0.1181,0.32859 -0.293,0.347c-0.08762,0.00801 -0.17473,-0.01997 -0.24131,-0.07749c-0.06658,-0.05752 -0.1069,-0.13965 -0.11169,-0.22751l-0.135,-2.58c-0.01095,-0.17799 0.1223,-0.33211 0.3,-0.347" data-paper-data="{&quot;index&quot;:null}" fill="#ffffff" fill-rule="nonzero" stroke="none"/><path d="M263.89527,211.465l0.024,1.104l-2.706,0.058l-0.024,-1.103z" data-paper-data="{&quot;index&quot;:null}" fill="#c1c1c1" fill-rule="nonzero" stroke="none"/><path d="M262.54127,210.14c0.68645,-0.00222 1.26577,0.50997 1.3477,1.19151c0.08193,0.68154 -0.3595,1.31643 -1.02692,1.47697c-0.66742,0.16053 -1.34928,-0.20418 -1.58624,-0.84843c-0.23696,-0.64425 0.04608,-1.36386 0.65846,-1.67404c0.18805,-0.09558 0.39606,-0.14526 0.607,-0.145" data-paper-data="{&quot;index&quot;:null}" fill="#c1c1c1" fill-rule="nonzero" stroke="none"/><path d="M262.56527,211.245c0.68592,-0.00109 1.26396,0.51164 1.34474,1.19278c0.08078,0.68115 -0.36132,1.31485 -1.02847,1.47422c-0.66715,0.15937 -1.34792,-0.2061 -1.58373,-0.85022c-0.2358,-0.64412 0.0481,-1.36274 0.66045,-1.67178c0.18804,-0.09561 0.39605,-0.1453 0.607,-0.145M267.86027,214.77c0.22965,0.5537 0.11945,1.19019 -0.283,1.63445c-0.40245,0.44426 -1.02498,0.61663 -1.59861,0.44265c-0.57364,-0.17398 -0.99553,-0.66313 -1.08338,-1.2561l-0.401,-1.455c-0.07076,-0.51955 0.12423,-1.0399 0.519,-1.385c0.37653,-0.32587 0.88649,-0.45141 1.37127,-0.33759c0.48478,0.11382 0.88557,0.4532 1.07773,0.91259l0.398,1.445z" data-paper-data="{&quot;index&quot;:null}" fill="#c1c1c1" fill-rule="nonzero" stroke="none"/><path d="M266.03027,212.571c0.60884,-0.00151 1.143,0.40556 1.303,0.993h0.002l0.294,1.064l-0.002,0.002c0.15379,0.70253 -0.26888,1.40261 -0.96219,1.5937c-0.69331,0.19109 -1.41496,-0.19358 -1.64281,-0.8757h-0.002l-0.294,-1.064h0.002c-0.11229,-0.40682 -0.02832,-0.84273 0.22706,-1.17873c0.25538,-0.33599 0.65291,-0.53358 1.07494,-0.53427" data-paper-data="{&quot;index&quot;:null}" fill="#ffffff" fill-rule="nonzero" stroke="none"/><path d="M269.30527,212.607c0.60324,0.00191 1.15124,0.35166 1.407,0.898l0.452,1.434c0.092,0.514 -0.082,1.05 -0.467,1.41c-0.36525,0.33751 -0.86968,0.48037 -1.35767,0.38451c-0.48799,-0.09586 -0.90089,-0.41892 -1.11133,-0.86951l-0.451,-1.437c-0.08888,-0.51673 0.08724,-1.0436 0.469,-1.403c0.28713,-0.26861 0.66582,-0.41772 1.059,-0.417" data-paper-data="{&quot;index&quot;:null}" fill="#c1c1c1" fill-rule="nonzero" stroke="none"/><path d="M269.30527,212.807c0.58996,0.00058 1.11153,0.38336 1.289,0.946h0.002l0.332,1.053l-0.001,0.001c0.1292,0.41073 0.0552,0.85844 -0.19931,1.20574c-0.25451,0.3473 -0.65912,0.55274 -1.08969,0.55326c-0.59032,0.00148 -1.11283,-0.38158 -1.289,-0.945h-0.002l-0.332,-1.053h0.001c-0.12913,-0.41084 -0.05513,-0.8586 0.19933,-1.20604c0.25446,-0.34744 0.65902,-0.55311 1.08967,-0.55396" data-paper-data="{&quot;index&quot;:null}" fill="#ffffff" fill-rule="nonzero" stroke="none"/><path d="M271.78027,210.616c0.45179,0.00047 0.8809,0.19804 1.175,0.541l0.828,1.263c0.22678,0.47262 0.20086,1.02758 -0.069,1.477c-0.284,0.47 -0.78,0.748 -1.329,0.748c-0.45155,-0.00062 -0.88046,-0.19774 -1.175,-0.54l-0.825,-1.257c-0.22968,-0.47379 -0.20486,-1.03148 0.066,-1.483c0.28069,-0.46614 0.78588,-0.75026 1.33,-0.748" data-paper-data="{&quot;index&quot;:null}" fill="#c1c1c1" fill-rule="nonzero" stroke="none"/><path d="M271.78027,210.816c0.45528,-0.00069 0.88005,0.22881 1.129,0.61v-0.001l0.607,0.923l-0.002,0.002c0.36512,0.62137 0.17908,1.41988 -0.42307,1.81589c-0.60215,0.39601 -1.40904,0.25051 -1.83493,-0.33089h-0.002l-0.606,-0.923l0.002,-0.001c-0.27471,-0.41513 -0.29868,-0.94776 -0.06236,-1.38589c0.23632,-0.43813 0.69457,-0.71066 1.19236,-0.70911" data-paper-data="{&quot;index&quot;:null}" fill="#ffffff" fill-rule="nonzero" stroke="none"/><path d="M254.27827,185.668c1.37926,-0.22085 2.78727,0.1567 3.871,1.038c3.755,3.05 12.416,10.703 14.931,18.283c2.094,6.311 -1.913,9.15 -5.012,10.368c-1.688,0.665 -3.606,-0.059 -4.457,-1.662l-10.985,-20.673l-1.015,-1.768c-1.31,-2.282 0.07,-5.17 2.667,-5.586" data-paper-data="{&quot;index&quot;:null}" fill="#222222" fill-rule="nonzero" stroke="none"/><path d="M260.86527,208.53c1.16701,-2.14337 3.01908,-3.83347 5.26,-4.8c1.94648,-0.84762 4.1052,-1.08135 6.188,-0.67c0.126,0.275 0.245,0.551 0.358,0.826c-4.508,-1.157 -9.261,1.063 -11.39,5.424zM266.76727,194.918c-4.26323,-0.26758 -8.22709,2.1978 -9.872,6.14l-0.432,-0.816c0.95519,-1.96581 2.48647,-3.59406 4.39,-4.668c1.625,-0.919 3.425,-1.39 5.247,-1.402c0.224,0.246 0.447,0.495 0.667,0.747" data-paper-data="{&quot;index&quot;:null}" fill="#6d6d6d" fill-rule="nonzero" stroke="none"/><path d="M243.99527,144.024c-0.553,5.261 -5.267,9.078 -10.527,8.524c-3.85333,-0.40473 -7.08338,-3.0909 -8.18387,-6.80585c-1.10049,-3.71495 0.14533,-7.72702 3.15648,-10.16523c3.01116,-2.43821 7.1946,-2.82236 10.59943,-0.97331c3.40484,1.84906 5.36049,5.56715 4.95496,9.42039" data-paper-data="{&quot;index&quot;:null}" fill="#222222" fill-rule="nonzero" stroke="none"/><path d="M244.46827,142.406c5.663,-0.354 16.251,-0.201 23.721,5.932c7.47,6.134 9.329,12.138 10.097,16.228c0.768,4.09 1.995,12.615 -4.752,18.895c-6.746,6.28 -14.11,6.375 -24.026,5.965c-9.917,-0.41 -17.045,-2.263 -22.84,-4.878c-5.797,-2.616 -7.947,-7.751 -8.23,-10.311c-0.284,-2.56 0.859,-8.169 1.906,-11.126c1.049,-2.957 4.639,-12.371 10.769,-16.454c6.128,-4.087 13.355,-4.25 13.355,-4.25" data-paper-data="{&quot;index&quot;:null}" fill="#ffffff" fill-rule="nonzero" stroke="none"/><path d="M220.95927,161.464c0.13157,-0.33723 0.26625,-0.67325 0.404,-1.008c0.642,-0.063 1.13,-0.348 1.48,-0.86c0.57,-0.837 1.224,-2.638 1.98,-4.724c0.33,-0.911 0.682,-1.88 1.059,-2.861c0.68,-0.97213 1.4261,-1.89632 2.233,-2.766c-0.898,1.964 -1.671,4.089 -2.351,5.968l-2.094,4.946c-0.24,0.353 6.732,4.118 6.732,4.118c5.02659,2.23326 10.50159,3.27371 15.997,3.04l5.64,0.68c1.334,0.044 2.167,-0.372 2.547,-1.273c0.394,-0.933 0.679,-2.828 1.009,-5.023c0.563,-3.738 1.262,-8.391 2.91,-11.477c2.753,-5.156 6.368,-5.64 8.124,-4.705c2.945,1.562 5.209,6.58 6.346,10.755l-0.965,0.262c-1.65,-6.058 -4.104,-9.208 -5.85,-10.135c-1.403,-0.744 -4.364,-0.216 -6.772,4.294c-1.568,2.934 -2.253,7.492 -2.804,11.156c-0.34,2.26 -0.633,4.213 -1.077,5.262c-0.38,0.899 -1.295,1.956 -3.5,1.884l-5.565,-0.68c-5.65015,0.2403 -11.27927,-0.82994 -16.447,-3.127c0,0 -8.387,-3.708 -9.036,-3.726" data-paper-data="{&quot;index&quot;:null}" fill="#bbbbbb" fill-rule="nonzero" stroke="none"/><path d="M220.34527,163.112c0.489,-1.375 1.527,-4.148 3.114,-7.132c0.60196,-0.20398 1.21703,-0.36702 1.841,-0.488c0.40881,-0.09915 0.82531,-0.16338 1.245,-0.192h0.008c2.22558,-0.15739 4.40669,0.67831 5.95729,2.28255c1.5506,1.60424 2.31167,3.81251 2.07871,6.03145l-0.684,6.503c-0.4361,4.14373 -4.14813,7.1498 -8.292,6.715l-5.864,-0.616c-0.303,-0.032 -0.6,-0.083 -0.892,-0.15c-0.225,-0.686 -0.361,-1.31 -0.418,-1.829c-0.285,-2.56 0.858,-8.168 1.906,-11.125" data-paper-data="{&quot;index&quot;:null}" fill="#222222" fill-rule="nonzero" stroke="none"/><path d="M248.96427,167.706l-2.544,0.11" data-paper-data="{&quot;index&quot;:null}" fill="none" fill-rule="evenodd" stroke="#bbbbbb"/><path d="M255.00427,158.172c0.43849,0.04677 0.87211,0.13142 1.296,0.253l0.008,0.003c0.404,0.11529 0.79742,0.26483 1.176,0.447c8.062,3.42 9.333,12.567 9.333,12.567c0.42624,2.3382 -0.27402,4.74056 -1.88986,6.48352c-1.61584,1.74295 -3.95841,2.62278 -6.32214,2.37448l-5.862,-0.616c-4.14416,-0.43609 -7.15039,-4.14876 -6.715,-8.293l0.683,-6.504c0.20916,-1.99022 1.20042,-3.81583 2.75568,-5.07515c1.55526,-1.25933 3.54711,-1.8492 5.53732,-1.63985" data-paper-data="{&quot;index&quot;:null}" fill="#222222" fill-rule="nonzero" stroke="none"/><path d="M252.14227,174.944c-3.116,-0.333 -5.375,-3.413 -5.02,-6.843c0.355,-3.431 3.195,-5.966 6.312,-5.633c3.115,0.333 5.374,3.413 5.018,6.844c-0.354,3.431 -3.194,5.965 -6.31,5.632" data-paper-data="{&quot;index&quot;:null}" fill="#ffffff" fill-rule="nonzero" stroke="none"/><path d="M248.63327,168.262c0.261,-2.526 2.333,-4.376 4.629,-4.13c2.293,0.245 3.942,2.492 3.68,5.018c-0.261,2.527 -2.333,4.376 -4.628,4.132c-2.294,-0.247 -3.943,-2.494 -3.681,-5.02" data-paper-data="{&quot;index&quot;:null}" fill="#222222" fill-rule="nonzero" stroke="none"/><path d="M252.98127,166.413c0.11603,-1.03704 1.04748,-1.7859 2.08523,-1.67649c1.03776,0.10941 1.79255,1.03606 1.68977,2.07449c-0.06708,0.67766 -0.49205,1.26746 -1.11366,1.54556c-0.6216,0.2781 -1.34455,0.20188 -1.89449,-0.19974c-0.54994,-0.40162 -0.84258,-1.06707 -0.76685,-1.74382" data-paper-data="{&quot;index&quot;:null}" fill="#ffffff" fill-rule="nonzero" stroke="none"/><path d="M236.05227,170.855c0.09927,-0.08778 0.22937,-0.13246 0.36163,-0.12421c0.13225,0.00825 0.25579,0.06877 0.34337,0.16821c0.005,0.005 0.48,0.515 0.999,0.46c0.336,-0.034 0.624,-0.303 0.848,-0.6c-0.316,-0.15 -0.594,-0.36 -0.81,-0.624l-0.596,-0.738l-0.605,-0.756c-0.38113,-0.46922 -0.55995,-1.07078 -0.497,-1.672l0.009,-0.087c0.13639,-1.24908 1.25495,-2.1542 2.505,-2.027l2.723,0.286c1.24989,0.13538 2.15615,1.25425 2.029,2.505l-0.01,0.087c-0.06313,0.60049 -0.3629,1.15108 -0.833,1.53h-0.001l-0.748,0.614l-0.738,0.597c-0.274,0.223 -0.603,0.373 -0.956,0.45c0.156,0.333 0.378,0.648 0.695,0.75c0.506,0.165 1.073,-0.239 1.076,-0.24c0.22174,-0.16458 0.53492,-0.11824 0.6995,0.1035c0.16458,0.22174 0.11824,0.53492 -0.1035,0.6995c-0.033,0.023 -0.655,0.477 -1.421,0.477c-0.178,0 -0.364,-0.026 -0.551,-0.085c-0.498,-0.158 -0.903,-0.524 -1.208,-1.088c-0.416,0.489 -0.888,0.762 -1.408,0.814c-1.04,0.105 -1.815,-0.758 -1.847,-0.794c-0.08783,-0.09943 -0.13255,-0.2297 -0.12429,-0.36212c0.00825,-0.13242 0.06879,-0.25612 0.16829,-0.34388M249.08627,150.99c0.02,-0.004 0.037,0.003 0.056,0l-0.002,-0.01l3.288,-0.482c0.59069,-0.10118 1.15503,0.28479 1.27495,0.87195c0.11992,0.58717 -0.2479,1.16351 -0.83095,1.30205l-3.209,0.854l-0.003,-0.011c-0.019,0.005 -0.034,0.019 -0.054,0.023c-0.70361,0.14359 -1.39041,-0.31039 -1.534,-1.014c-0.14359,-0.70361 0.31039,-1.39041 1.014,-1.534M229.34127,148.799c0.11743,-0.26978 0.33725,-0.48184 0.61108,-0.58949c0.27383,-0.10765 0.57921,-0.10208 0.84892,0.01549l3.116,1.155l-0.004,0.009c0.019,0.007 0.037,0.004 0.055,0.012c0.65832,0.28664 0.95964,1.05268 0.673,1.711c-0.28664,0.65832 -1.05268,0.95964 -1.711,0.673c-0.02,-0.007 -0.03,-0.025 -0.05,-0.033l-0.003,0.009l-2.962,-1.502c-0.56137,-0.24495 -0.81824,-0.89832 -0.574,-1.46" data-paper-data="{&quot;index&quot;:null}" fill="#222222" fill-rule="nonzero" stroke="none"/><path d="M227.22827,172.281c-3.117,-0.333 -5.376,-3.413 -5.02,-6.844c0.354,-3.43 3.194,-5.965 6.31,-5.632c3.116,0.334 5.375,3.414 5.02,6.844c-0.355,3.43 -3.195,5.965 -6.311,5.632" data-paper-data="{&quot;index&quot;:null}" fill="#ffffff" fill-rule="nonzero" stroke="none"/><path d="M232.01027,166.485c-0.262,2.526 -2.334,4.376 -4.628,4.13c-2.295,-0.245 -3.943,-2.492 -3.682,-5.018c0.262,-2.527 2.333,-4.376 4.628,-4.13c2.295,0.245 3.943,2.492 3.682,5.018M266.11327,149.774c-0.93112,-1.02448 -1.96374,-1.95189 -3.082,-2.768c0.05057,-0.39489 0.12538,-0.78629 0.224,-1.172c1.323,-5.122 6.548,-8.201 11.67,-6.878c5.122,1.323 8.201,6.548 6.877,11.67c-1.22,4.727 -5.765,7.71 -10.484,7.103c-1.017,-2.431 -2.633,-5.11 -5.205,-7.955" data-paper-data="{&quot;index&quot;:null}" fill="#222222" fill-rule="nonzero" stroke="none"/><path d="M231.88627,164.196c-0.06296,0.68074 -0.48716,1.27502 -1.1105,1.55577c-0.62334,0.28075 -1.3495,0.20457 -1.90102,-0.19942c-0.55151,-0.40399 -0.84315,-1.07336 -0.76348,-1.75235c0.1211,-1.03206 1.04961,-1.77486 2.08308,-1.66645c1.03347,0.10841 1.78762,1.02773 1.69192,2.06245" data-paper-data="{&quot;index&quot;:null}" fill="#ffffff" fill-rule="nonzero" stroke="none"/><path d="M234.45727,131.444c0.406,0 0.817,0.022 1.223,0.064c4.88974,0.50153 8.92389,4.04787 10.048,8.833c0.71966,-0.02812 1.43979,-0.04245 2.16,-0.043c5.455,0 10.309,0.814 14.465,2.423c2.00929,-3.7474 5.92093,-6.08177 10.173,-6.071c0.974,0 1.949,0.124 2.899,0.37c2.97691,0.75973 5.52605,2.67905 7.079,5.33c1.56739,2.64293 2.01211,5.80314 1.235,8.776c-0.76477,2.95925 -2.67086,5.49495 -5.301,7.052c1.056,2.419 1.535,4.533 1.815,6.02c0.623,3.314 2.519,13.398 -5.355,20.728c-2.851,2.653 -5.978,4.437 -9.645,5.474c3.925,3.897 8.046,8.896 9.725,13.96c0.809,2.435 0.896,4.663 0.265,6.639l0.212,0.322c0.04795,0.07465 0.09136,0.15213 0.13,0.232c0.52241,1.08119 0.46181,2.35336 -0.161,3.38c-0.54513,0.90776 -1.46915,1.52267 -2.517,1.675c-0.192,0.448 -0.477,0.859 -0.846,1.204c-0.66,0.615 -1.521,0.954 -2.423,0.954c-0.664,0 -1.312,-0.188 -1.87,-0.532c-1.26301,0.56359 -2.7384,0.34189 -3.78,-0.568c-0.973,1.69 -2.381,3.069 -4.212,4.126l-0.757,4.68c-0.25399,1.59553 -1.3782,2.91541 -2.913,3.42l-0.255,1.302c-0.13,2.254 -2.013,4.07 -4.294,4.09l-10.462,0.09c-1.542,0 -2.916,-0.76 -3.715,-2.034c-0.79735,-1.26486 -0.88361,-2.85219 -0.228,-4.196c0.02873,-0.05823 0.04018,-0.12347 0.033,-0.188l-0.374,-3.148c-0.9743,-0.99774 -1.72734,-2.18965 -2.21,-3.498c-1.848,-1.291 -3.21,-3.094 -4.077,-5.39c-0.38018,0.12004 -0.7789,0.17051 -1.177,0.149c-0.042,0.044 -0.086,0.087 -0.13,0.13l-0.014,0.053c-0.02,0.08 -0.046,0.16 -0.077,0.239c-0.53315,1.35894 -1.84522,2.25178 -3.305,2.249c-0.474,0 -0.943,-0.095 -1.376,-0.278c-1.34529,0.86995 -3.10614,0.73321 -4.301,-0.334c-0.376,-0.337 -0.67,-0.742 -0.87,-1.186c-1.0502,-0.13172 -1.98602,-0.72734 -2.55,-1.623c-0.64869,-1.0179 -0.73351,-2.29632 -0.225,-3.391c0.0337,-0.07239 0.07142,-0.14283 0.113,-0.211l0.209,-0.341c-0.67,-1.962 -0.627,-4.188 0.13,-6.638c2.098,-6.784 8.422,-13.472 13.087,-17.695c-1.42156,-0.4942 -2.82029,-1.05176 -4.192,-1.671c-6.708,-3.027 -9.062,-8.913 -9.395,-11.913c-0.346,-3.113 0.969,-9.08 2.01,-12.015c1.056,-2.977 3.244,-8.332 6.599,-12.674c-1.6574,-2.30273 -2.40725,-5.13587 -2.106,-7.957c0.60421,-5.89681 5.57532,-10.37829 11.503,-10.37M234.45727,133.443c-4.89801,0.00739 -9.00176,3.70785 -9.514,8.579c-0.3022,2.85537 0.69501,5.69537 2.716,7.735c-4.038,4.59 -6.48,11.007 -7.313,13.355c-1.048,2.957 -2.192,8.566 -1.908,11.126c0.285,2.56 2.435,7.696 8.23,10.31c2.42746,1.09205 4.93849,1.98791 7.509,2.679c-0.267,0.15 -0.526,0.316 -0.762,0.517c-3.692,3.126 -12.194,10.956 -14.553,18.585c-0.821,2.658 -0.58,4.679 0.199,6.224l-0.746,1.212c-0.21905,0.4792 -0.1826,1.03641 0.097,1.483c0.21964,0.34886 0.56936,0.59571 0.97164,0.68581c0.40228,0.0901 0.82388,0.01603 1.17136,-0.20581c0.13736,-0.08734 0.2599,-0.19604 0.363,-0.322l0.244,-0.38c0.047,0.038 0.096,0.07 0.144,0.105l-0.325,1.11c-0.08,0.51963 0.10678,1.04465 0.497,1.397c0.37088,0.33163 0.8782,0.4655 1.36441,0.36002c0.48622,-0.10548 0.89246,-0.43752 1.09259,-0.89302l0.15,-0.513c0.09,0.034 0.182,0.048 0.27,0.073c0.08675,0.27914 0.25115,0.52783 0.474,0.717c0.38302,0.31665 0.89425,0.43129 1.37581,0.30853c0.48156,-0.12276 0.87551,-0.46816 1.06019,-0.92953l0.169,-0.666c0.45088,-0.32895 0.81866,-0.75871 1.074,-1.255l0.079,-0.157c0.10537,0.10504 0.22691,0.19249 0.36,0.259c0.67452,0.31845 1.47966,0.03371 1.804,-0.638c0.08579,-0.18158 0.12954,-0.38017 0.128,-0.581h0.004v-1.105h-0.004c0,-0.466 -0.246,-0.906 -0.666,-1.155l1.168,-2.311c-0.004,0.998 0.028,1.948 0.105,2.824c0.41,4.696 2.172,7.47 4.797,9.042c0.41942,1.48823 1.2635,2.82195 2.429,3.838l0.458,3.865c0.052,0.444 -0.024,0.893 -0.22,1.295c-0.752,1.555 0.382,3.359 2.105,3.359h0.02l10.464,-0.091c1.27644,-0.01088 2.30822,-1.04355 2.318,-2.32l0.563,-2.875c0.10268,0.0147 0.20627,0.02205 0.31,0.022c1.087,0 2.119,-0.757 2.313,-1.96l0.916,-5.66c2.852,-1.375 4.847,-3.58 5.463,-7.15l0.188,0.354c0.26584,0.49092 0.64247,0.91309 1.1,1.233l0.183,0.664c0.19256,0.45868 0.59358,0.79707 1.07811,0.90974c0.48454,0.11267 0.99371,-0.01407 1.36889,-0.34074c0.21856,-0.19334 0.37773,-0.44475 0.459,-0.725c0.089,-0.028 0.18,-0.043 0.268,-0.078l0.16,0.505c0.20691,0.45412 0.62006,0.78064 1.1097,0.87702c0.48964,0.09638 0.99572,-0.0492 1.3593,-0.39102c0.38367,-0.36108 0.55962,-0.89116 0.468,-1.41l-0.348,-1.1c0.049,-0.037 0.098,-0.071 0.146,-0.108l0.246,0.374c0.29329,0.34391 0.72301,0.5414 1.175,0.54c0.548,0 1.045,-0.28 1.329,-0.748c0.27018,-0.45034 0.29647,-1.00617 0.07,-1.48l-0.78,-1.186c0.752,-1.563 0.956,-3.593 0.077,-6.243c-1.984,-5.98 -7.79,-12 -11.998,-15.773c4.586,-0.616 8.62,-2.185 12.453,-5.753c6.746,-6.28 5.52,-14.805 4.752,-18.894c-0.383,-2.041 -1.038,-4.558 -2.526,-7.33c2.98615,-1.06523 5.24956,-3.54217 6.042,-6.612c1.323,-5.122 -1.756,-10.347 -6.878,-11.67c-0.78387,-0.20291 -1.59029,-0.30573 -2.4,-0.306c-4.17372,0.00858 -7.86179,2.7178 -9.118,6.698c-5.235,-2.473 -11.057,-3.05 -15.518,-3.05c-1.264,0 -2.42,0.047 -3.42,0.109c0,0 -0.17,0.006 -0.45,0.024c-0.28,-4.587 -3.827,-8.437 -8.548,-8.934c-0.33687,-0.03495 -0.67532,-0.05264 -1.014,-0.053" data-paper-data="{&quot;index&quot;:null}" fill="#000000" fill-rule="nonzero" stroke="none"/></g></g></svg>