<svg version="1.1" xmlns="http://www.w3.org/2000/svg" xmlns:xlink="http://www.w3.org/1999/xlink" width="476.5" height="366.78334" viewBox="0,0,476.5,366.78334"><g transform="translate(-3.25,3.96666)"><g data-paper-data="{&quot;isPaintingLayer&quot;:true}" fill-rule="nonzero" stroke="#000000" stroke-width="0.5" stroke-linejoin="miter" stroke-miterlimit="10" stroke-dasharray="" stroke-dashoffset="0" style="mix-blend-mode: normal"><path d="M126.5,-3.71666l1,67l3,298" fill="none" stroke-linecap="round"/><path d="M4.5,362.28334c0,0 -1,-123.60406 -1,-184.21666c0,-59.7071 1,-176.78334 1,-176.78334h124v361z" fill="#000000" stroke-linecap="butt"/><path d="M346.5,362.56668v-366h133v366z" fill="#000000" stroke-linecap="butt"/><path d="M225.5,95.85002v-99h16v99z" fill="#f80000" stroke-linecap="butt"/><path d="M224.5,264.35002v-114h17v114z" fill="#f80000" stroke-linecap="butt"/><path d="M85.5,58.56668c0,10.76955 -8.95431,19.5 -20,19.5c-11.04569,0 -20,-8.73045 -20,-19.5c0,-10.76955 8.95431,-19.5 20,-19.5c11.04569,0 20,8.73045 20,19.5z" fill="#ffffff" stroke-linecap="butt"/><path d="M429.5,141.06668c0,11.04569 -9.17816,20 -20.5,20c-11.32184,0 -20.5,-8.95431 -20.5,-20c0,-11.04569 9.17816,-20 20.5,-20c11.32184,0 20.5,8.95431 20.5,20z" fill="#ffffff" stroke-linecap="butt"/><path d="M92.5,249.13336c0,11.59798 -10.07359,21 -22.5,21c-12.42641,0 -22.5,-9.40202 -22.5,-21c0,-11.59798 10.07359,-21 22.5,-21c12.42641,0 22.5,9.40202 22.5,21z" fill="#ffffff" stroke-linecap="butt"/></g></g></svg>